<svg id="svg" version="1.1" xmlns="http://www.w3.org/2000/svg" xmlns:xlink="http://www.w3.org/1999/xlink" width="400" height="400" viewBox="0, 0, 400,400"><g id="svgg"><path id="path0" d="M170.400 88.448 C 169.410 88.639,167.610 88.961,166.400 89.163 C 162.984 89.732,158.024 91.032,156.140 91.852 C 155.446 92.153,154.679 92.400,154.434 92.400 C 154.189 92.400,153.677 92.565,153.295 92.766 C 152.913 92.967,151.070 93.899,149.200 94.836 C 147.330 95.774,144.864 97.140,143.719 97.871 C 142.575 98.602,141.520 99.200,141.376 99.200 C 139.853 99.200,128.308 110.277,125.102 114.813 C 122.701 118.211,121.200 120.468,121.200 120.680 C 121.200 120.814,120.750 121.514,120.200 122.236 C 119.650 122.957,119.200 123.704,119.200 123.897 C 119.200 124.090,118.585 125.497,117.833 127.024 C 117.081 128.551,116.341 130.297,116.188 130.904 C 116.036 131.511,115.751 132.106,115.556 132.227 C 115.360 132.348,115.200 132.857,115.200 133.357 C 115.200 133.857,115.065 134.402,114.900 134.566 C 114.509 134.958,113.115 140.402,112.331 144.600 C 112.012 146.312,111.839 173.628,111.730 239.900 L 111.577 332.800 113.322 332.800 C 114.282 332.800,115.199 332.668,115.360 332.506 C 115.675 332.191,119.301 331.290,121.600 330.954 C 122.941 330.759,123.522 330.562,126.200 329.391 C 126.860 329.103,128.165 328.547,129.100 328.157 C 130.035 327.766,130.800 327.301,130.800 327.123 C 130.800 326.945,130.989 326.800,131.219 326.800 C 131.753 326.800,135.907 324.155,137.120 323.043 C 141.677 318.865,144.800 315.361,144.800 314.427 C 144.800 314.192,144.943 314.000,145.118 314.000 C 145.293 314.000,146.174 312.515,147.075 310.700 C 149.430 305.954,150.000 304.584,150.000 303.663 C 150.000 303.214,150.180 302.736,150.400 302.600 C 150.620 302.464,150.800 301.655,150.800 300.802 C 150.800 299.950,151.025 298.745,151.300 298.126 C 151.691 297.246,151.851 281.798,152.034 227.400 C 152.264 158.754,152.312 156.236,153.434 153.740 C 153.745 153.046,154.000 152.279,154.000 152.034 C 154.000 151.578,154.179 151.168,155.375 148.885 C 155.753 148.161,156.274 147.166,156.532 146.672 C 157.600 144.625,160.831 140.480,162.668 138.800 C 165.926 135.820,167.174 134.800,167.563 134.800 C 167.767 134.800,167.993 134.636,168.067 134.436 C 168.258 133.913,174.406 130.800,175.247 130.800 C 175.635 130.800,176.064 130.620,176.200 130.400 C 176.336 130.180,176.842 129.992,177.324 129.982 C 177.806 129.973,178.920 129.673,179.800 129.316 C 181.235 128.734,186.727 128.639,233.000 128.397 C 272.815 128.190,284.965 128.013,286.200 127.623 C 287.080 127.345,288.476 127.028,289.303 126.917 C 290.129 126.806,290.905 126.555,291.026 126.358 C 291.148 126.161,291.524 126.000,291.863 126.000 C 293.272 126.000,300.143 122.507,302.670 120.505 C 305.761 118.058,308.780 115.267,309.588 114.111 C 310.083 113.402,310.923 112.322,311.456 111.711 C 311.988 111.100,312.660 110.150,312.950 109.600 C 313.239 109.050,314.224 107.196,315.138 105.481 C 316.052 103.766,316.800 102.021,316.800 101.605 C 316.800 101.188,316.964 100.746,317.165 100.622 C 317.366 100.497,317.656 99.632,317.810 98.698 C 317.964 97.764,318.230 96.820,318.400 96.600 C 318.571 96.380,318.792 95.480,318.892 94.600 C 318.992 93.720,319.312 92.173,319.603 91.162 C 319.895 90.151,320.019 89.026,319.879 88.662 C 319.595 87.921,174.201 87.714,170.400 88.448 M201.800 188.033 C 195.464 188.602,186.557 191.911,182.767 195.104 C 182.235 195.552,180.682 196.837,179.316 197.960 C 173.824 202.475,169.302 209.617,166.880 217.600 C 166.239 219.713,165.144 227.186,165.412 227.620 C 165.847 228.324,245.399 228.113,248.135 227.400 C 249.402 227.070,250.870 226.800,251.396 226.800 C 251.922 226.800,252.464 226.620,252.600 226.400 C 252.736 226.180,253.214 226.000,253.663 226.000 C 254.112 226.000,255.136 225.714,255.940 225.364 C 258.875 224.085,264.000 221.446,264.000 221.212 C 264.000 221.080,264.585 220.627,265.300 220.205 C 267.346 218.996,271.474 215.142,273.000 213.015 C 273.440 212.401,274.178 211.427,274.641 210.850 C 275.103 210.272,276.072 208.720,276.794 207.400 C 277.516 206.080,278.216 204.820,278.350 204.600 C 278.626 204.147,279.373 202.164,280.157 199.800 C 280.449 198.920,281.005 196.760,281.391 195.000 C 281.778 193.240,282.253 191.387,282.447 190.881 C 282.641 190.376,282.800 189.431,282.800 188.781 L 282.800 187.600 244.100 187.655 C 222.815 187.685,203.780 187.855,201.800 188.033 " stroke="none" fill="#eb7333" fill-rule="evenodd"></path><path id="path1" d="M245.982 87.998 L 319.764 88.200 320.005 89.200 C 320.222 90.103,320.266 90.123,320.457 89.400 C 320.574 88.960,320.594 88.375,320.502 88.100 C 320.368 87.702,305.234 87.620,246.267 87.698 L 172.200 87.797 245.982 87.998 M166.800 88.647 L 164.600 89.184 166.600 88.996 C 167.700 88.893,169.410 88.650,170.400 88.455 L 172.200 88.100 170.600 88.105 C 169.720 88.108,168.010 88.352,166.800 88.647 M162.400 89.600 C 162.070 89.813,161.347 89.991,160.794 89.994 C 160.241 89.997,158.801 90.369,157.594 90.821 C 156.387 91.272,154.604 91.919,153.631 92.260 C 141.671 96.443,126.732 109.473,120.220 121.400 L 119.128 123.400 120.162 122.200 C 120.731 121.540,121.197 120.873,121.198 120.718 C 121.200 120.473,122.615 118.333,125.102 114.813 C 128.308 110.277,139.853 99.200,141.376 99.200 C 141.520 99.200,142.575 98.602,143.719 97.871 C 144.864 97.140,147.330 95.774,149.200 94.836 C 151.070 93.899,152.913 92.967,153.295 92.766 C 153.677 92.565,154.189 92.400,154.434 92.400 C 154.679 92.400,155.446 92.158,156.140 91.861 C 157.956 91.085,159.964 90.501,161.808 90.213 C 163.696 89.917,165.099 89.212,163.800 89.212 C 163.360 89.212,162.730 89.387,162.400 89.600 M319.281 92.288 C 319.016 93.171,318.814 94.322,318.832 94.846 C 318.849 95.371,318.917 95.620,318.983 95.400 C 319.049 95.180,319.327 94.256,319.600 93.346 C 319.874 92.437,320.022 91.466,319.929 91.188 C 319.837 90.911,319.545 91.406,319.281 92.288 M318.286 96.673 C 318.180 96.853,317.966 97.764,317.811 98.698 C 317.657 99.632,317.366 100.497,317.165 100.622 C 316.964 100.746,316.804 101.242,316.809 101.724 C 316.817 102.471,316.898 102.424,317.360 101.400 C 318.433 99.025,319.193 95.146,318.286 96.673 M315.440 104.874 C 313.870 108.074,312.513 110.435,311.709 111.366 C 311.313 111.825,310.467 112.920,309.829 113.800 C 308.816 115.199,306.914 116.988,302.655 120.547 C 302.025 121.073,300.724 121.896,299.764 122.375 C 298.113 123.200,297.166 124.011,297.876 123.991 C 298.447 123.975,304.245 119.868,306.615 117.800 C 308.866 115.837,312.421 111.396,314.078 108.478 C 315.718 105.589,316.870 103.136,316.677 102.944 C 316.570 102.837,316.013 103.705,315.440 104.874 M118.510 124.501 C 116.819 128.084,115.200 131.870,115.200 132.242 C 115.200 132.857,115.952 131.847,116.184 130.921 C 116.334 130.323,117.099 128.517,117.884 126.906 C 118.670 125.296,119.227 123.894,119.123 123.790 C 119.019 123.686,118.744 124.006,118.510 124.501 M293.600 125.433 C 293.044 125.742,292.867 125.985,293.200 125.980 C 293.530 125.975,294.250 125.714,294.800 125.400 C 295.350 125.086,295.530 124.840,295.200 124.853 C 294.870 124.867,294.150 125.128,293.600 125.433 M287.887 127.046 C 287.751 127.182,287.046 127.433,286.320 127.605 C 285.215 127.867,285.163 127.924,286.000 127.953 C 286.550 127.972,287.810 127.733,288.800 127.421 C 290.455 126.899,290.501 126.851,289.367 126.827 C 288.688 126.812,288.022 126.911,287.887 127.046 M233.800 128.400 L 187.000 128.605 234.600 128.655 C 260.780 128.683,282.740 128.568,283.400 128.400 C 284.387 128.149,284.244 128.104,282.600 128.145 C 281.500 128.172,259.540 128.287,233.800 128.400 M179.600 129.460 L 178.200 130.025 179.800 129.765 C 180.680 129.622,182.390 129.372,183.600 129.211 L 185.800 128.918 183.400 128.907 C 182.080 128.900,180.370 129.150,179.600 129.460 M171.200 132.475 C 169.550 133.350,168.140 134.231,168.067 134.433 C 167.993 134.635,167.767 134.800,167.563 134.800 C 166.693 134.800,160.868 140.318,159.244 142.681 C 157.769 144.827,159.084 143.619,161.200 140.885 C 162.935 138.642,168.867 134.178,172.400 132.457 C 174.270 131.546,175.440 130.819,175.000 130.842 C 174.560 130.865,172.850 131.600,171.200 132.475 M114.436 134.446 C 114.145 135.411,113.757 136.650,113.573 137.200 C 113.105 138.602,112.098 143.055,111.765 145.200 C 111.036 149.892,111.164 333.602,111.897 333.553 C 113.999 333.411,115.018 332.895,113.289 332.847 L 111.577 332.800 111.730 239.900 C 111.839 173.628,112.012 146.312,112.331 144.600 C 113.110 140.428,114.290 135.773,114.881 134.539 C 115.107 134.066,115.219 133.457,115.128 133.185 C 115.038 132.914,114.726 133.481,114.436 134.446 M157.342 145.273 C 157.008 145.794,156.612 146.520,155.480 148.685 C 154.229 151.079,153.876 152.009,154.123 152.257 C 154.265 152.398,154.502 152.174,154.650 151.757 C 155.291 149.947,156.562 147.314,157.294 146.277 C 157.730 145.659,157.996 145.062,157.884 144.950 C 157.772 144.838,157.528 144.984,157.342 145.273 M153.300 153.893 C 153.025 154.479,152.809 155.419,152.819 155.980 C 152.834 156.783,152.967 156.633,153.443 155.273 C 154.141 153.281,154.041 152.313,153.300 153.893 M152.289 158.000 C 152.136 158.550,152.028 159.630,152.049 160.400 C 152.086 161.746,152.101 161.731,152.447 160.000 C 152.851 157.977,152.728 156.423,152.289 158.000 M201.600 187.553 C 200.830 187.689,218.805 187.745,241.544 187.678 L 282.888 187.555 282.667 189.078 C 282.545 189.915,282.350 191.230,282.234 192.000 L 282.023 193.400 282.581 191.800 C 282.888 190.920,283.152 189.525,283.169 188.700 L 283.200 187.200 243.100 187.253 C 221.045 187.282,202.370 187.417,201.600 187.553 M195.200 188.635 C 194.210 188.941,193.040 189.347,192.600 189.537 C 189.336 190.949,187.930 191.664,188.095 191.828 C 188.200 191.934,188.987 191.676,189.843 191.255 C 192.831 189.786,196.078 188.748,199.200 188.264 C 199.752 188.178,199.484 188.102,198.600 188.094 C 197.720 188.086,196.190 188.329,195.200 188.635 M184.980 193.131 C 182.180 194.978,177.869 198.488,176.076 200.380 C 172.113 204.564,167.711 212.464,166.481 217.600 C 165.410 222.070,165.203 223.251,165.241 224.677 C 165.268 225.680,165.469 225.040,165.831 222.800 C 167.468 212.676,172.345 203.691,179.316 197.960 C 180.682 196.837,182.190 195.591,182.667 195.190 C 183.144 194.790,184.404 193.979,185.467 193.389 C 187.750 192.121,187.914 191.990,187.167 192.031 C 186.855 192.048,185.871 192.543,184.980 193.131 M281.248 195.800 C 280.955 197.120,280.529 198.701,280.303 199.313 C 280.077 199.925,279.989 200.522,280.106 200.640 C 280.224 200.757,280.526 200.167,280.777 199.327 C 281.028 198.487,281.425 197.155,281.659 196.366 C 281.893 195.578,282.016 194.588,281.933 194.166 C 281.850 193.745,281.542 194.480,281.248 195.800 M279.244 202.431 C 278.645 204.037,278.540 204.251,276.804 207.400 C 276.077 208.720,275.103 210.272,274.641 210.850 C 274.178 211.427,273.440 212.401,273.000 213.015 C 271.474 215.142,267.346 218.996,265.300 220.205 C 264.585 220.627,264.000 221.080,264.000 221.212 C 264.000 221.434,259.266 223.884,256.000 225.352 C 255.230 225.699,254.843 225.986,255.141 225.991 C 257.525 226.031,265.761 220.883,270.247 216.550 C 274.403 212.534,280.445 203.135,279.907 201.521 C 279.823 201.269,279.524 201.678,279.244 202.431 M252.600 226.400 C 252.285 226.909,253.212 226.909,254.000 226.400 C 254.488 226.085,254.436 226.011,253.724 226.006 C 253.242 226.003,252.736 226.180,252.600 226.400 M248.000 227.446 L 246.200 227.988 247.800 227.830 C 250.207 227.591,252.645 226.878,251.000 226.893 C 250.340 226.899,248.990 227.148,248.000 227.446 M165.200 228.053 C 165.200 228.822,237.792 229.162,243.200 228.419 C 244.410 228.252,227.355 228.045,205.300 227.958 C 183.245 227.871,165.200 227.914,165.200 228.053 M151.522 296.000 C 151.376 296.990,151.155 298.790,151.031 300.000 L 150.805 302.200 151.418 299.800 C 151.756 298.480,151.977 296.680,151.910 295.800 L 151.788 294.200 151.522 296.000 M150.292 302.642 C 150.131 302.802,150.005 303.308,150.012 303.767 C 150.023 304.536,150.056 304.545,150.440 303.885 C 150.888 303.116,150.773 302.160,150.292 302.642 M149.273 306.097 C 148.984 306.814,148.567 307.733,148.346 308.139 C 148.125 308.545,148.043 308.976,148.162 309.096 C 148.424 309.357,150.074 305.621,149.912 305.135 C 149.849 304.947,149.562 305.380,149.273 306.097 M146.565 311.764 C 145.963 312.994,145.319 314.000,145.135 314.000 C 144.951 314.000,144.800 314.192,144.800 314.427 C 144.800 315.361,141.677 318.865,137.120 323.043 C 135.907 324.155,131.753 326.800,131.219 326.800 C 130.989 326.800,130.800 326.945,130.800 327.123 C 130.800 327.301,130.035 327.765,129.100 328.154 C 126.457 329.255,125.585 329.719,125.785 329.919 C 125.886 330.020,126.831 329.701,127.885 329.211 C 135.168 325.821,142.206 319.770,145.810 313.800 C 147.707 310.659,148.070 309.936,147.858 309.725 C 147.749 309.616,147.168 310.533,146.565 311.764 M119.200 331.456 C 117.604 332.095,118.528 332.027,121.800 331.265 L 123.400 330.892 122.000 330.894 C 121.230 330.895,119.970 331.148,119.200 331.456 M115.400 332.400 C 115.105 332.878,115.889 332.878,117.000 332.400 C 117.714 332.093,117.685 332.053,116.724 332.028 C 116.132 332.013,115.536 332.180,115.400 332.400 " stroke="none" fill="#823f1d" fill-rule="evenodd"></path><path id="path2" d="M176.432 0.372 C 173.625 0.526,172.211 0.763,172.099 1.100 C 171.982 1.453,170.825 1.600,168.167 1.600 C 165.922 1.600,164.400 1.762,164.400 2.000 C 164.400 2.222,163.333 2.400,162.000 2.400 C 160.133 2.400,159.600 2.533,159.600 3.000 C 159.600 3.466,159.069 3.600,157.224 3.600 C 155.917 3.600,154.736 3.780,154.600 4.000 C 154.464 4.220,153.548 4.400,152.564 4.400 C 151.343 4.400,150.702 4.590,150.545 5.000 C 150.389 5.406,149.753 5.600,148.581 5.600 C 147.627 5.600,146.736 5.780,146.600 6.000 C 146.464 6.220,145.753 6.400,145.019 6.400 C 144.203 6.400,143.596 6.633,143.455 7.000 C 143.298 7.411,142.655 7.600,141.413 7.600 C 140.416 7.600,139.600 7.780,139.600 8.000 C 139.600 8.220,138.964 8.400,138.187 8.400 C 137.301 8.400,136.689 8.623,136.545 9.000 C 136.403 9.370,135.795 9.600,134.957 9.600 C 134.211 9.600,133.600 9.780,133.600 10.000 C 133.600 10.220,132.964 10.400,132.187 10.400 C 131.301 10.400,130.689 10.623,130.545 11.000 C 130.418 11.330,129.884 11.600,129.357 11.600 C 128.831 11.600,128.400 11.780,128.400 12.000 C 128.400 12.220,127.854 12.400,127.187 12.400 C 126.479 12.400,125.879 12.649,125.745 13.000 C 125.618 13.330,125.084 13.600,124.557 13.600 C 124.031 13.600,123.600 13.780,123.600 14.000 C 123.600 14.220,123.163 14.400,122.629 14.400 C 122.094 14.400,121.387 14.670,121.057 15.000 C 120.727 15.330,120.095 15.600,119.652 15.600 C 119.209 15.600,118.736 15.780,118.600 16.000 C 118.464 16.220,117.998 16.400,117.564 16.400 C 117.130 16.400,116.671 16.670,116.545 17.000 C 116.418 17.330,115.884 17.600,115.357 17.600 C 114.831 17.600,114.400 17.780,114.400 18.000 C 114.400 18.220,113.950 18.400,113.400 18.400 C 112.778 18.400,112.400 18.627,112.400 19.000 C 112.400 19.373,112.022 19.600,111.400 19.600 C 110.850 19.600,110.400 19.780,110.400 20.000 C 110.400 20.220,109.950 20.400,109.400 20.400 C 108.778 20.400,108.400 20.627,108.400 21.000 C 108.400 21.373,108.022 21.600,107.400 21.600 C 106.850 21.600,106.400 21.780,106.400 22.000 C 106.400 22.220,105.950 22.400,105.400 22.400 C 104.778 22.400,104.400 22.627,104.400 23.000 C 104.400 23.373,104.022 23.600,103.400 23.600 C 102.850 23.600,102.400 23.780,102.400 24.000 C 102.400 24.220,102.034 24.400,101.587 24.400 C 101.141 24.400,100.671 24.670,100.545 25.000 C 100.418 25.330,99.974 25.600,99.557 25.600 C 99.141 25.600,98.800 25.780,98.800 26.000 C 98.800 26.220,98.530 26.400,98.200 26.400 C 97.870 26.400,97.600 26.670,97.600 27.000 C 97.600 27.373,97.222 27.600,96.600 27.600 C 96.050 27.600,95.600 27.780,95.600 28.000 C 95.600 28.220,95.324 28.400,94.987 28.400 C 94.651 28.400,94.271 28.670,94.145 29.000 C 94.018 29.330,93.574 29.600,93.157 29.600 C 92.741 29.600,92.400 29.780,92.400 30.000 C 92.400 30.220,92.065 30.400,91.656 30.400 C 91.247 30.400,90.574 30.850,90.161 31.400 C 89.747 31.951,89.004 32.400,88.505 32.400 C 87.967 32.400,87.600 32.643,87.600 33.000 C 87.600 33.330,87.330 33.600,87.000 33.600 C 86.670 33.600,86.400 33.780,86.400 34.000 C 86.400 34.220,86.173 34.400,85.896 34.400 C 85.619 34.400,84.934 34.805,84.375 35.300 C 83.276 36.272,82.153 37.043,81.200 37.480 C 80.355 37.867,79.600 38.666,79.600 39.171 C 79.600 39.407,79.330 39.600,79.000 39.600 C 78.670 39.600,78.400 39.780,78.400 40.000 C 78.400 40.220,78.065 40.400,77.656 40.400 C 77.247 40.400,76.574 40.850,76.161 41.400 C 75.748 41.950,75.183 42.400,74.905 42.400 C 74.627 42.400,74.400 42.670,74.400 43.000 C 74.400 43.330,74.085 43.606,73.700 43.613 C 72.835 43.628,71.600 44.529,71.600 45.144 C 71.600 45.395,71.407 45.600,71.171 45.600 C 70.618 45.600,69.600 46.618,69.600 47.171 C 69.600 47.407,69.407 47.600,69.171 47.600 C 68.936 47.600,68.492 47.825,68.185 48.100 C 66.962 49.197,66.422 49.600,66.175 49.600 C 66.033 49.600,64.860 50.680,63.568 52.000 C 62.277 53.320,61.035 54.400,60.810 54.400 C 60.584 54.400,60.400 54.593,60.400 54.829 C 60.400 55.382,59.382 56.400,58.829 56.400 C 58.593 56.400,58.400 56.593,58.400 56.829 C 58.400 57.382,57.382 58.400,56.829 58.400 C 56.593 58.400,56.400 58.593,56.400 58.829 C 56.400 59.382,55.382 60.400,54.829 60.400 C 54.593 60.400,54.400 60.593,54.400 60.829 C 54.400 61.382,53.382 62.400,52.829 62.400 C 52.593 62.400,52.400 62.590,52.400 62.823 C 52.400 63.055,51.529 64.090,50.465 65.123 C 49.400 66.155,48.276 67.585,47.967 68.300 C 47.658 69.015,47.256 69.600,47.074 69.600 C 46.599 69.600,45.600 70.665,45.600 71.171 C 45.600 71.407,45.407 71.600,45.171 71.600 C 44.551 71.600,43.600 72.646,43.600 73.329 C 43.600 73.651,43.330 74.018,43.000 74.145 C 42.670 74.271,42.400 74.573,42.400 74.814 C 42.400 75.056,41.770 75.848,41.000 76.574 C 40.230 77.300,39.600 78.278,39.600 78.747 C 39.600 79.216,39.407 79.600,39.171 79.600 C 38.618 79.600,37.600 80.618,37.600 81.171 C 37.600 81.407,37.423 81.600,37.208 81.600 C 36.992 81.600,36.711 82.015,36.584 82.523 C 36.456 83.031,35.913 83.776,35.376 84.179 C 34.839 84.582,34.400 85.247,34.400 85.656 C 34.400 86.065,34.220 86.400,34.000 86.400 C 33.780 86.400,33.600 86.651,33.600 86.957 C 33.600 87.264,33.330 87.618,33.000 87.745 C 32.670 87.871,32.400 88.341,32.400 88.787 C 32.400 89.234,32.220 89.600,32.000 89.600 C 31.780 89.600,31.600 89.793,31.600 90.029 C 31.600 90.264,31.375 90.708,31.100 91.015 C 29.959 92.287,28.857 93.960,28.542 94.900 C 28.412 95.285,28.148 95.600,27.953 95.600 C 27.759 95.600,27.600 96.050,27.600 96.600 C 27.600 97.222,27.373 97.600,27.000 97.600 C 26.662 97.600,26.400 97.957,26.400 98.417 C 26.400 98.867,25.950 99.720,25.400 100.313 C 24.850 100.907,24.400 101.619,24.400 101.896 C 24.400 102.173,24.220 102.400,24.000 102.400 C 23.780 102.400,23.600 102.850,23.600 103.400 C 23.600 104.022,23.373 104.400,23.000 104.400 C 22.627 104.400,22.400 104.778,22.400 105.400 C 22.400 105.950,22.220 106.400,22.000 106.400 C 21.780 106.400,21.600 106.850,21.600 107.400 C 21.600 108.022,21.373 108.400,21.000 108.400 C 20.627 108.400,20.400 108.778,20.400 109.400 C 20.400 109.950,20.220 110.400,20.000 110.400 C 19.780 110.400,19.600 110.850,19.600 111.400 C 19.600 112.022,19.373 112.400,19.000 112.400 C 18.627 112.400,18.400 112.778,18.400 113.400 C 18.400 113.950,18.220 114.400,18.000 114.400 C 17.780 114.400,17.600 114.831,17.600 115.357 C 17.600 115.884,17.330 116.418,17.000 116.545 C 16.670 116.671,16.400 117.130,16.400 117.564 C 16.400 117.998,16.220 118.464,16.000 118.600 C 15.780 118.736,15.600 119.209,15.600 119.652 C 15.600 120.095,15.330 120.727,15.000 121.057 C 14.670 121.387,14.400 122.094,14.400 122.629 C 14.400 123.163,14.220 123.600,14.000 123.600 C 13.780 123.600,13.600 123.973,13.600 124.429 C 13.600 124.884,13.330 125.527,13.000 125.857 C 12.670 126.187,12.400 126.894,12.400 127.429 C 12.400 127.963,12.220 128.400,12.000 128.400 C 11.780 128.400,11.600 129.036,11.600 129.813 C 11.600 130.699,11.377 131.311,11.000 131.455 C 10.670 131.582,10.400 132.106,10.400 132.619 C 10.400 133.133,10.220 133.664,10.000 133.800 C 9.780 133.936,9.600 134.762,9.600 135.636 C 9.600 136.680,9.394 137.304,9.000 137.455 C 8.630 137.597,8.400 138.205,8.400 139.043 C 8.400 139.789,8.220 140.400,8.000 140.400 C 7.780 140.400,7.600 141.120,7.600 142.000 C 7.600 143.156,7.433 143.600,7.000 143.600 C 6.557 143.600,6.400 144.064,6.400 145.376 C 6.400 146.353,6.220 147.264,6.000 147.400 C 5.780 147.536,5.600 148.245,5.600 148.975 C 5.600 149.705,5.330 150.526,5.000 150.800 C 4.603 151.130,4.400 152.025,4.400 153.449 C 4.400 154.632,4.220 155.600,4.000 155.600 C 3.780 155.600,3.600 156.500,3.600 157.600 C 3.600 159.060,3.447 159.600,3.033 159.600 C 2.460 159.600,2.405 159.982,1.760 168.381 C 1.597 170.504,1.340 171.502,0.866 171.849 C -0.187 172.619,-0.154 227.406,0.900 228.176 C 1.454 228.581,1.600 229.286,1.600 231.544 C 1.600 233.181,1.771 234.400,2.000 234.400 C 2.231 234.400,2.400 235.667,2.400 237.400 C 2.400 239.712,2.529 240.400,2.963 240.400 C 3.347 240.400,3.599 241.069,3.754 242.500 C 4.337 247.880,4.512 248.795,5.037 249.231 C 5.347 249.488,5.600 250.295,5.600 251.025 C 5.600 251.755,5.780 252.464,6.000 252.600 C 6.220 252.736,6.400 253.647,6.400 254.624 C 6.400 255.936,6.557 256.400,7.000 256.400 C 7.433 256.400,7.600 256.844,7.600 258.000 C 7.600 258.880,7.780 259.600,8.000 259.600 C 8.220 259.600,8.400 260.211,8.400 260.957 C 8.400 261.795,8.630 262.403,9.000 262.545 C 9.394 262.696,9.600 263.320,9.600 264.364 C 9.600 265.238,9.780 266.064,10.000 266.200 C 10.220 266.336,10.400 266.867,10.400 267.381 C 10.400 267.894,10.670 268.418,11.000 268.545 C 11.377 268.689,11.600 269.301,11.600 270.187 C 11.600 270.964,11.780 271.600,12.000 271.600 C 12.220 271.600,12.400 272.037,12.400 272.571 C 12.400 273.106,12.670 273.813,13.000 274.143 C 13.330 274.473,13.600 275.116,13.600 275.571 C 13.600 276.027,13.780 276.400,14.000 276.400 C 14.220 276.400,14.400 276.837,14.400 277.371 C 14.400 277.906,14.670 278.613,15.000 278.943 C 15.330 279.273,15.600 280.006,15.600 280.571 C 15.600 281.137,15.780 281.600,16.000 281.600 C 16.220 281.600,16.400 281.966,16.400 282.413 C 16.400 282.859,16.670 283.329,17.000 283.455 C 17.330 283.582,17.600 284.116,17.600 284.643 C 17.600 285.169,17.780 285.600,18.000 285.600 C 18.220 285.600,18.400 286.050,18.400 286.600 C 18.400 287.222,18.627 287.600,19.000 287.600 C 19.373 287.600,19.600 287.978,19.600 288.600 C 19.600 289.150,19.780 289.600,20.000 289.600 C 20.220 289.600,20.400 290.050,20.400 290.600 C 20.400 291.222,20.627 291.600,21.000 291.600 C 21.373 291.600,21.600 291.978,21.600 292.600 C 21.600 293.150,21.780 293.600,22.000 293.600 C 22.220 293.600,22.400 294.050,22.400 294.600 C 22.400 295.222,22.627 295.600,23.000 295.600 C 23.373 295.600,23.600 295.978,23.600 296.600 C 23.600 297.150,23.780 297.600,24.000 297.600 C 24.220 297.600,24.400 297.966,24.400 298.413 C 24.400 298.859,24.639 299.317,24.932 299.429 C 25.224 299.541,25.708 300.256,26.007 301.017 C 26.305 301.777,26.786 302.400,27.075 302.400 C 27.368 302.400,27.600 302.841,27.600 303.400 C 27.600 303.950,27.737 304.400,27.905 304.400 C 28.211 304.400,28.933 305.585,29.429 306.900 C 29.574 307.285,29.852 307.600,30.047 307.600 C 30.241 307.600,30.400 307.935,30.400 308.344 C 30.400 308.753,30.850 309.426,31.400 309.839 C 31.950 310.252,32.400 310.913,32.400 311.307 C 32.400 311.702,32.670 312.129,33.000 312.255 C 33.330 312.382,33.600 312.659,33.600 312.871 C 33.600 313.084,33.825 313.508,34.100 313.815 C 35.287 315.138,35.600 315.591,35.600 315.983 C 35.600 316.212,35.780 316.400,36.000 316.400 C 36.220 316.400,36.400 316.670,36.400 317.000 C 36.400 317.330,36.670 317.600,37.000 317.600 C 37.340 317.600,37.600 317.959,37.600 318.429 C 37.600 319.273,38.456 320.400,39.097 320.400 C 39.291 320.400,39.698 321.030,40.000 321.800 C 40.302 322.570,40.966 323.513,41.475 323.895 C 41.984 324.277,42.400 324.817,42.400 325.095 C 42.400 325.373,42.670 325.600,43.000 325.600 C 43.333 325.600,43.600 325.956,43.600 326.400 C 43.600 326.840,43.780 327.200,44.000 327.200 C 44.220 327.200,44.400 327.470,44.400 327.800 C 44.400 328.130,44.670 328.400,45.000 328.400 C 45.330 328.400,45.600 328.593,45.600 328.829 C 45.600 329.382,46.618 330.400,47.171 330.400 C 47.407 330.400,47.600 330.588,47.600 330.817 C 47.600 331.047,48.050 331.720,48.600 332.313 C 49.150 332.907,49.600 333.547,49.600 333.738 C 49.600 333.928,50.680 335.140,52.000 336.432 C 53.320 337.723,54.400 338.965,54.400 339.190 C 54.400 339.416,54.593 339.600,54.829 339.600 C 55.382 339.600,56.400 340.618,56.400 341.171 C 56.400 341.407,56.593 341.600,56.829 341.600 C 57.382 341.600,58.400 342.618,58.400 343.171 C 58.400 343.407,58.593 343.600,58.829 343.600 C 59.382 343.600,60.400 344.618,60.400 345.171 C 60.400 345.407,60.593 345.600,60.829 345.600 C 61.382 345.600,62.400 346.618,62.400 347.171 C 62.400 347.407,62.569 347.600,62.776 347.600 C 62.984 347.600,64.092 348.500,65.239 349.600 C 66.386 350.700,67.567 351.600,67.862 351.600 C 68.158 351.600,68.400 351.780,68.400 352.000 C 68.400 352.220,68.670 352.400,69.000 352.400 C 69.330 352.400,69.600 352.593,69.600 352.829 C 69.600 353.382,70.618 354.400,71.171 354.400 C 71.407 354.400,71.600 354.593,71.600 354.829 C 71.600 355.382,72.618 356.400,73.171 356.400 C 73.407 356.400,73.600 356.568,73.600 356.773 C 73.600 356.978,73.994 357.271,74.475 357.424 C 74.956 357.576,75.922 358.308,76.622 359.051 C 77.322 359.793,78.278 360.400,78.747 360.400 C 79.216 360.400,79.600 360.593,79.600 360.829 C 79.600 361.362,80.610 362.400,81.129 362.400 C 81.341 362.400,81.618 362.670,81.745 363.000 C 81.871 363.330,82.298 363.600,82.693 363.600 C 83.087 363.600,83.748 364.050,84.161 364.600 C 84.574 365.150,85.247 365.600,85.656 365.600 C 86.065 365.600,86.400 365.780,86.400 366.000 C 86.400 366.220,86.670 366.400,87.000 366.400 C 87.330 366.400,87.600 366.670,87.600 367.000 C 87.600 367.357,87.967 367.600,88.505 367.600 C 89.004 367.600,89.747 368.049,90.161 368.600 C 90.574 369.150,91.247 369.600,91.656 369.600 C 92.065 369.600,92.400 369.780,92.400 370.000 C 92.400 370.220,92.741 370.400,93.157 370.400 C 93.574 370.400,94.018 370.670,94.145 371.000 C 94.271 371.330,94.651 371.600,94.987 371.600 C 95.324 371.600,95.600 371.780,95.600 372.000 C 95.600 372.220,96.050 372.400,96.600 372.400 C 97.222 372.400,97.600 372.627,97.600 373.000 C 97.600 373.330,97.870 373.600,98.200 373.600 C 98.530 373.600,98.800 373.780,98.800 374.000 C 98.800 374.220,99.141 374.400,99.557 374.400 C 99.974 374.400,100.418 374.670,100.545 375.000 C 100.671 375.330,101.141 375.600,101.587 375.600 C 102.034 375.600,102.400 375.780,102.400 376.000 C 102.400 376.220,102.850 376.400,103.400 376.400 C 104.022 376.400,104.400 376.627,104.400 377.000 C 104.400 377.373,104.778 377.600,105.400 377.600 C 105.950 377.600,106.400 377.780,106.400 378.000 C 106.400 378.220,106.850 378.400,107.400 378.400 C 108.022 378.400,108.400 378.627,108.400 379.000 C 108.400 379.373,108.778 379.600,109.400 379.600 C 109.950 379.600,110.400 379.780,110.400 380.000 C 110.400 380.220,110.850 380.400,111.400 380.400 C 112.022 380.400,112.400 380.627,112.400 381.000 C 112.400 381.373,112.778 381.600,113.400 381.600 C 113.950 381.600,114.400 381.780,114.400 382.000 C 114.400 382.220,114.831 382.400,115.357 382.400 C 115.884 382.400,116.418 382.670,116.545 383.000 C 116.671 383.330,117.130 383.600,117.564 383.600 C 117.998 383.600,118.464 383.780,118.600 384.000 C 118.736 384.220,119.209 384.400,119.652 384.400 C 120.095 384.400,120.727 384.670,121.057 385.000 C 121.387 385.330,122.094 385.600,122.629 385.600 C 123.163 385.600,123.600 385.780,123.600 386.000 C 123.600 386.220,123.973 386.400,124.429 386.400 C 124.884 386.400,125.527 386.670,125.857 387.000 C 126.187 387.330,126.894 387.600,127.429 387.600 C 127.963 387.600,128.400 387.780,128.400 388.000 C 128.400 388.220,129.120 388.400,130.000 388.400 C 131.156 388.400,131.600 388.567,131.600 389.000 C 131.600 389.419,132.022 389.600,133.000 389.600 C 133.770 389.600,134.400 389.780,134.400 390.000 C 134.400 390.220,135.120 390.400,136.000 390.400 C 137.156 390.400,137.600 390.567,137.600 391.000 C 137.600 391.419,138.022 391.600,139.000 391.600 C 139.770 391.600,140.400 391.780,140.400 392.000 C 140.400 392.220,141.101 392.400,141.957 392.400 C 142.972 392.400,143.595 392.609,143.745 393.000 C 143.902 393.411,144.545 393.600,145.787 393.600 C 146.784 393.600,147.600 393.780,147.600 394.000 C 147.600 394.220,148.208 394.400,148.951 394.400 C 149.694 394.400,150.512 394.653,150.769 394.963 C 151.205 395.488,152.120 395.663,157.500 396.246 C 158.931 396.401,159.600 396.653,159.600 397.037 C 159.600 397.458,160.200 397.600,161.976 397.600 C 163.283 397.600,164.464 397.780,164.600 398.000 C 164.736 398.220,165.947 398.400,167.292 398.400 C 169.059 398.400,169.951 398.594,170.510 399.100 C 171.706 400.182,228.294 400.182,229.490 399.100 C 230.049 398.594,230.941 398.400,232.708 398.400 C 234.053 398.400,235.264 398.220,235.400 398.000 C 235.536 397.780,236.717 397.600,238.024 397.600 C 239.800 397.600,240.400 397.458,240.400 397.037 C 240.400 396.653,241.069 396.401,242.500 396.246 C 247.880 395.663,248.795 395.488,249.231 394.963 C 249.488 394.653,250.306 394.400,251.049 394.400 C 251.792 394.400,252.400 394.220,252.400 394.000 C 252.400 393.780,253.216 393.600,254.213 393.600 C 255.455 393.600,256.098 393.411,256.255 393.000 C 256.405 392.609,257.028 392.400,258.043 392.400 C 258.899 392.400,259.600 392.220,259.600 392.000 C 259.600 391.780,260.230 391.600,261.000 391.600 C 261.978 391.600,262.400 391.419,262.400 391.000 C 262.400 390.567,262.844 390.400,264.000 390.400 C 264.880 390.400,265.600 390.220,265.600 390.000 C 265.600 389.780,266.230 389.600,267.000 389.600 C 267.978 389.600,268.400 389.419,268.400 389.000 C 268.400 388.567,268.844 388.400,270.000 388.400 C 270.880 388.400,271.600 388.220,271.600 388.000 C 271.600 387.780,272.037 387.600,272.571 387.600 C 273.106 387.600,273.813 387.330,274.143 387.000 C 274.473 386.670,275.116 386.400,275.571 386.400 C 276.027 386.400,276.400 386.220,276.400 386.000 C 276.400 385.780,276.837 385.600,277.371 385.600 C 277.906 385.600,278.613 385.330,278.943 385.000 C 279.273 384.670,279.905 384.400,280.348 384.400 C 280.791 384.400,281.264 384.220,281.400 384.000 C 281.536 383.780,282.002 383.600,282.436 383.600 C 282.870 383.600,283.329 383.330,283.455 383.000 C 283.582 382.670,284.116 382.400,284.643 382.400 C 285.169 382.400,285.600 382.220,285.600 382.000 C 285.600 381.780,286.050 381.600,286.600 381.600 C 287.222 381.600,287.600 381.373,287.600 381.000 C 287.600 380.627,287.978 380.400,288.600 380.400 C 289.150 380.400,289.600 380.220,289.600 380.000 C 289.600 379.780,290.050 379.600,290.600 379.600 C 291.222 379.600,291.600 379.373,291.600 379.000 C 291.600 378.627,291.978 378.400,292.600 378.400 C 293.150 378.400,293.600 378.220,293.600 378.000 C 293.600 377.780,294.050 377.600,294.600 377.600 C 295.222 377.600,295.600 377.373,295.600 377.000 C 295.600 376.627,295.978 376.400,296.600 376.400 C 297.150 376.400,297.600 376.220,297.600 376.000 C 297.600 375.780,297.966 375.600,298.413 375.600 C 298.859 375.600,299.329 375.330,299.455 375.000 C 299.582 374.670,300.026 374.400,300.443 374.400 C 300.859 374.400,301.200 374.220,301.200 374.000 C 301.200 373.780,301.470 373.600,301.800 373.600 C 302.130 373.600,302.400 373.330,302.400 373.000 C 302.400 372.627,302.778 372.400,303.400 372.400 C 303.950 372.400,304.400 372.220,304.400 372.000 C 304.400 371.780,304.676 371.600,305.013 371.600 C 305.349 371.600,305.729 371.330,305.855 371.000 C 305.982 370.670,306.426 370.400,306.843 370.400 C 307.259 370.400,307.600 370.220,307.600 370.000 C 307.600 369.780,307.827 369.600,308.104 369.600 C 308.381 369.600,309.093 369.150,309.687 368.600 C 310.280 368.050,311.133 367.600,311.583 367.600 C 312.043 367.600,312.400 367.338,312.400 367.000 C 312.400 366.670,312.670 366.400,313.000 366.400 C 313.330 366.400,313.600 366.220,313.600 366.000 C 313.600 365.780,313.935 365.600,314.344 365.600 C 314.753 365.600,315.426 365.150,315.839 364.600 C 316.252 364.050,316.913 363.600,317.307 363.600 C 317.702 363.600,318.129 363.330,318.255 363.000 C 318.382 362.670,318.659 362.400,318.871 362.400 C 319.390 362.400,320.400 361.362,320.400 360.829 C 320.400 360.593,320.784 360.400,321.253 360.400 C 321.722 360.400,322.678 359.793,323.378 359.051 C 324.078 358.308,325.044 357.576,325.525 357.424 C 326.006 357.271,326.400 356.978,326.400 356.773 C 326.400 356.568,326.593 356.400,326.829 356.400 C 327.382 356.400,328.400 355.382,328.400 354.829 C 328.400 354.593,328.593 354.400,328.829 354.400 C 329.382 354.400,330.400 353.382,330.400 352.829 C 330.400 352.593,330.593 352.400,330.829 352.400 C 331.064 352.400,331.508 352.175,331.815 351.900 C 333.048 350.794,333.579 350.400,333.836 350.400 C 333.984 350.400,334.700 349.770,335.426 349.000 C 336.152 348.230,336.938 347.600,337.173 347.600 C 337.408 347.600,337.600 347.407,337.600 347.171 C 337.600 346.618,338.618 345.600,339.171 345.600 C 339.407 345.600,339.600 345.407,339.600 345.171 C 339.600 344.618,340.618 343.600,341.171 343.600 C 341.407 343.600,341.600 343.407,341.600 343.171 C 341.600 342.618,342.618 341.600,343.171 341.600 C 343.407 341.600,343.600 341.407,343.600 341.171 C 343.600 340.618,344.618 339.600,345.171 339.600 C 345.407 339.600,345.600 339.427,345.600 339.215 C 345.600 339.003,346.680 337.736,348.000 336.400 C 349.320 335.064,350.400 333.617,350.400 333.185 C 350.400 332.753,350.593 332.400,350.829 332.400 C 351.382 332.400,352.400 331.382,352.400 330.829 C 352.400 330.593,352.593 330.400,352.829 330.400 C 353.382 330.400,354.400 329.382,354.400 328.829 C 354.400 328.593,354.670 328.400,355.000 328.400 C 355.330 328.400,355.600 328.130,355.600 327.800 C 355.600 327.470,355.780 327.200,356.000 327.200 C 356.220 327.200,356.400 326.840,356.400 326.400 C 356.400 325.956,356.667 325.600,357.000 325.600 C 357.330 325.600,357.600 325.373,357.600 325.095 C 357.600 324.817,358.016 324.277,358.525 323.895 C 359.034 323.513,359.698 322.570,360.000 321.800 C 360.302 321.030,360.709 320.400,360.903 320.400 C 361.544 320.400,362.400 319.273,362.400 318.429 C 362.400 317.959,362.660 317.600,363.000 317.600 C 363.330 317.600,363.600 317.330,363.600 317.000 C 363.600 316.670,363.780 316.400,364.000 316.400 C 364.220 316.400,364.400 316.207,364.400 315.971 C 364.400 315.736,364.625 315.292,364.900 314.985 C 366.069 313.682,366.400 313.213,366.400 312.860 C 366.400 312.654,366.670 312.382,367.000 312.255 C 367.330 312.129,367.600 311.659,367.600 311.213 C 367.600 310.766,367.780 310.400,368.000 310.400 C 368.220 310.400,368.400 310.207,368.400 309.971 C 368.400 309.736,368.625 309.292,368.900 308.985 C 370.041 307.713,371.143 306.040,371.458 305.100 C 371.588 304.715,371.852 304.400,372.047 304.400 C 372.241 304.400,372.400 303.950,372.400 303.400 C 372.400 302.841,372.632 302.400,372.925 302.400 C 373.214 302.400,373.695 301.777,373.993 301.017 C 374.292 300.256,374.776 299.541,375.068 299.429 C 375.361 299.317,375.600 298.859,375.600 298.413 C 375.600 297.966,375.780 297.600,376.000 297.600 C 376.220 297.600,376.400 297.150,376.400 296.600 C 376.400 295.978,376.627 295.600,377.000 295.600 C 377.373 295.600,377.600 295.222,377.600 294.600 C 377.600 294.050,377.780 293.600,378.000 293.600 C 378.220 293.600,378.400 293.150,378.400 292.600 C 378.400 291.978,378.627 291.600,379.000 291.600 C 379.373 291.600,379.600 291.222,379.600 290.600 C 379.600 290.050,379.780 289.600,380.000 289.600 C 380.220 289.600,380.400 289.150,380.400 288.600 C 380.400 287.978,380.627 287.600,381.000 287.600 C 381.373 287.600,381.600 287.222,381.600 286.600 C 381.600 286.050,381.780 285.600,382.000 285.600 C 382.220 285.600,382.400 285.169,382.400 284.643 C 382.400 284.116,382.670 283.582,383.000 283.455 C 383.330 283.329,383.600 282.870,383.600 282.436 C 383.600 282.002,383.780 281.536,384.000 281.400 C 384.220 281.264,384.400 280.791,384.400 280.348 C 384.400 279.905,384.670 279.273,385.000 278.943 C 385.330 278.613,385.600 277.906,385.600 277.371 C 385.600 276.837,385.780 276.400,386.000 276.400 C 386.220 276.400,386.400 276.027,386.400 275.571 C 386.400 275.116,386.670 274.473,387.000 274.143 C 387.330 273.813,387.600 273.106,387.600 272.571 C 387.600 272.037,387.780 271.600,388.000 271.600 C 388.220 271.600,388.400 270.964,388.400 270.187 C 388.400 269.301,388.623 268.689,389.000 268.545 C 389.370 268.403,389.600 267.795,389.600 266.957 C 389.600 266.211,389.780 265.600,390.000 265.600 C 390.220 265.600,390.400 264.964,390.400 264.187 C 390.400 263.301,390.623 262.689,391.000 262.545 C 391.370 262.403,391.600 261.795,391.600 260.957 C 391.600 260.211,391.780 259.600,392.000 259.600 C 392.220 259.600,392.400 258.880,392.400 258.000 C 392.400 256.844,392.567 256.400,393.000 256.400 C 393.443 256.400,393.600 255.936,393.600 254.624 C 393.600 253.647,393.780 252.736,394.000 252.600 C 394.220 252.464,394.400 251.755,394.400 251.025 C 394.400 250.295,394.670 249.474,395.000 249.200 C 395.397 248.870,395.600 247.975,395.600 246.551 C 395.600 245.368,395.780 244.400,396.000 244.400 C 396.220 244.400,396.400 243.500,396.400 242.400 C 396.400 240.889,396.547 240.400,397.000 240.400 C 397.480 240.400,397.600 239.800,397.600 237.400 C 397.600 235.667,397.769 234.400,398.000 234.400 C 398.229 234.400,398.400 233.181,398.400 231.544 C 398.400 229.286,398.546 228.581,399.100 228.176 C 399.755 227.697,399.800 225.885,399.800 200.000 C 399.800 174.115,399.755 172.303,399.100 171.824 C 398.546 171.419,398.400 170.714,398.400 168.456 C 398.400 166.819,398.229 165.600,398.000 165.600 C 397.771 165.600,397.600 164.396,397.600 162.787 C 397.600 160.656,397.455 159.919,397.000 159.745 C 396.580 159.583,396.400 158.928,396.400 157.557 C 396.400 156.481,396.220 155.600,396.000 155.600 C 395.780 155.600,395.600 154.632,395.600 153.449 C 395.600 152.025,395.397 151.130,395.000 150.800 C 394.670 150.526,394.400 149.705,394.400 148.975 C 394.400 148.245,394.220 147.536,394.000 147.400 C 393.780 147.264,393.600 146.353,393.600 145.376 C 393.600 144.064,393.443 143.600,393.000 143.600 C 392.567 143.600,392.400 143.156,392.400 142.000 C 392.400 141.120,392.220 140.400,392.000 140.400 C 391.780 140.400,391.600 139.789,391.600 139.043 C 391.600 138.205,391.370 137.597,391.000 137.455 C 390.606 137.304,390.400 136.680,390.400 135.636 C 390.400 134.762,390.220 133.936,390.000 133.800 C 389.780 133.664,389.600 133.133,389.600 132.619 C 389.600 132.106,389.330 131.582,389.000 131.455 C 388.623 131.311,388.400 130.699,388.400 129.813 C 388.400 129.036,388.220 128.400,388.000 128.400 C 387.780 128.400,387.600 127.963,387.600 127.429 C 387.600 126.894,387.330 126.187,387.000 125.857 C 386.670 125.527,386.400 124.884,386.400 124.429 C 386.400 123.973,386.220 123.600,386.000 123.600 C 385.780 123.600,385.600 123.163,385.600 122.629 C 385.600 122.094,385.330 121.387,385.000 121.057 C 384.670 120.727,384.400 120.095,384.400 119.652 C 384.400 119.209,384.220 118.736,384.000 118.600 C 383.780 118.464,383.600 117.998,383.600 117.564 C 383.600 117.130,383.330 116.671,383.000 116.545 C 382.670 116.418,382.400 115.884,382.400 115.357 C 382.400 114.831,382.220 114.400,382.000 114.400 C 381.780 114.400,381.600 113.950,381.600 113.400 C 381.600 112.778,381.373 112.400,381.000 112.400 C 380.627 112.400,380.400 112.022,380.400 111.400 C 380.400 110.850,380.220 110.400,380.000 110.400 C 379.780 110.400,379.600 109.950,379.600 109.400 C 379.600 108.778,379.373 108.400,379.000 108.400 C 378.627 108.400,378.400 108.022,378.400 107.400 C 378.400 106.850,378.220 106.400,378.000 106.400 C 377.780 106.400,377.600 105.950,377.600 105.400 C 377.600 104.778,377.373 104.400,377.000 104.400 C 376.627 104.400,376.400 104.022,376.400 103.400 C 376.400 102.850,376.220 102.400,376.000 102.400 C 375.780 102.400,375.600 102.173,375.600 101.896 C 375.600 101.619,375.150 100.907,374.600 100.313 C 374.050 99.720,373.600 98.867,373.600 98.417 C 373.600 97.957,373.338 97.600,373.000 97.600 C 372.627 97.600,372.400 97.222,372.400 96.600 C 372.400 96.050,372.220 95.600,372.000 95.600 C 371.780 95.600,371.600 95.330,371.600 95.000 C 371.600 94.670,371.330 94.400,371.000 94.400 C 370.627 94.400,370.400 94.022,370.400 93.400 C 370.400 92.850,370.220 92.400,370.000 92.400 C 369.780 92.400,369.600 92.173,369.600 91.896 C 369.600 91.619,369.150 90.907,368.600 90.313 C 368.050 89.720,367.600 88.867,367.600 88.417 C 367.600 87.957,367.338 87.600,367.000 87.600 C 366.670 87.600,366.400 87.330,366.400 87.000 C 366.400 86.670,366.220 86.400,366.000 86.400 C 365.780 86.400,365.600 86.065,365.600 85.656 C 365.600 85.247,365.161 84.582,364.624 84.179 C 364.087 83.776,363.544 83.031,363.416 82.523 C 363.289 82.015,363.008 81.600,362.792 81.600 C 362.577 81.600,362.400 81.407,362.400 81.171 C 362.400 80.618,361.382 79.600,360.829 79.600 C 360.593 79.600,360.400 79.216,360.400 78.747 C 360.400 78.278,359.770 77.300,359.000 76.574 C 358.230 75.848,357.600 75.056,357.600 74.814 C 357.600 74.573,357.330 74.271,357.000 74.145 C 356.670 74.018,356.400 73.651,356.400 73.329 C 356.400 72.646,355.449 71.600,354.829 71.600 C 354.593 71.600,354.400 71.407,354.400 71.171 C 354.400 70.665,353.401 69.600,352.926 69.600 C 352.744 69.600,352.366 69.083,352.087 68.451 C 351.807 67.819,350.683 66.369,349.589 65.228 C 348.495 64.087,347.600 62.984,347.600 62.776 C 347.600 62.569,347.407 62.400,347.171 62.400 C 346.618 62.400,345.600 61.382,345.600 60.829 C 345.600 60.593,345.407 60.400,345.171 60.400 C 344.618 60.400,343.600 59.382,343.600 58.829 C 343.600 58.593,343.407 58.400,343.171 58.400 C 342.618 58.400,341.600 57.382,341.600 56.829 C 341.600 56.593,341.407 56.400,341.171 56.400 C 340.618 56.400,339.600 55.382,339.600 54.829 C 339.600 54.593,339.416 54.400,339.190 54.400 C 338.965 54.400,337.723 53.320,336.432 52.000 C 335.140 50.680,333.820 49.600,333.498 49.600 C 333.176 49.600,332.574 49.150,332.161 48.600 C 331.748 48.050,331.183 47.600,330.905 47.600 C 330.627 47.600,330.400 47.407,330.400 47.171 C 330.400 46.618,329.382 45.600,328.829 45.600 C 328.593 45.600,328.400 45.395,328.400 45.144 C 328.400 44.529,327.165 43.628,326.300 43.613 C 325.915 43.606,325.600 43.330,325.600 43.000 C 325.600 42.670,325.373 42.400,325.095 42.400 C 324.817 42.400,324.252 41.950,323.839 41.400 C 323.426 40.850,322.753 40.400,322.344 40.400 C 321.935 40.400,321.600 40.220,321.600 40.000 C 321.600 39.780,321.330 39.600,321.000 39.600 C 320.670 39.600,320.400 39.407,320.400 39.171 C 320.400 38.529,319.345 37.600,318.616 37.600 C 318.263 37.600,317.871 37.330,317.745 37.000 C 317.618 36.670,317.346 36.400,317.140 36.400 C 316.934 36.400,316.280 35.950,315.687 35.400 C 315.093 34.850,314.381 34.400,314.104 34.400 C 313.827 34.400,313.600 34.220,313.600 34.000 C 313.600 33.780,313.330 33.600,313.000 33.600 C 312.670 33.600,312.400 33.330,312.400 33.000 C 312.400 32.662,312.043 32.400,311.583 32.400 C 311.133 32.400,310.280 31.950,309.687 31.400 C 309.093 30.850,308.381 30.400,308.104 30.400 C 307.827 30.400,307.600 30.220,307.600 30.000 C 307.600 29.780,307.259 29.600,306.843 29.600 C 306.426 29.600,305.982 29.330,305.855 29.000 C 305.729 28.670,305.349 28.400,305.013 28.400 C 304.676 28.400,304.400 28.220,304.400 28.000 C 304.400 27.780,303.950 27.600,303.400 27.600 C 302.778 27.600,302.400 27.373,302.400 27.000 C 302.400 26.670,302.130 26.400,301.800 26.400 C 301.470 26.400,301.200 26.220,301.200 26.000 C 301.200 25.780,300.859 25.600,300.443 25.600 C 300.026 25.600,299.582 25.330,299.455 25.000 C 299.329 24.670,298.859 24.400,298.413 24.400 C 297.966 24.400,297.600 24.220,297.600 24.000 C 297.600 23.780,297.150 23.600,296.600 23.600 C 295.978 23.600,295.600 23.373,295.600 23.000 C 295.600 22.627,295.222 22.400,294.600 22.400 C 294.050 22.400,293.600 22.220,293.600 22.000 C 293.600 21.780,293.150 21.600,292.600 21.600 C 291.978 21.600,291.600 21.373,291.600 21.000 C 291.600 20.627,291.222 20.400,290.600 20.400 C 290.050 20.400,289.600 20.220,289.600 20.000 C 289.600 19.780,289.150 19.600,288.600 19.600 C 287.978 19.600,287.600 19.373,287.600 19.000 C 287.600 18.627,287.222 18.400,286.600 18.400 C 286.050 18.400,285.600 18.220,285.600 18.000 C 285.600 17.780,285.169 17.600,284.643 17.600 C 284.116 17.600,283.582 17.330,283.455 17.000 C 283.329 16.670,282.870 16.400,282.436 16.400 C 282.002 16.400,281.536 16.220,281.400 16.000 C 281.264 15.780,280.825 15.600,280.425 15.600 C 280.025 15.600,279.474 15.330,279.200 15.000 C 278.926 14.670,278.184 14.400,277.551 14.400 C 276.918 14.400,276.400 14.220,276.400 14.000 C 276.400 13.780,275.969 13.600,275.443 13.600 C 274.916 13.600,274.382 13.330,274.255 13.000 C 274.121 12.649,273.521 12.400,272.813 12.400 C 272.146 12.400,271.600 12.220,271.600 12.000 C 271.600 11.780,271.169 11.600,270.643 11.600 C 270.116 11.600,269.582 11.330,269.455 11.000 C 269.311 10.623,268.699 10.400,267.813 10.400 C 267.036 10.400,266.400 10.220,266.400 10.000 C 266.400 9.780,265.789 9.600,265.043 9.600 C 264.205 9.600,263.597 9.370,263.455 9.000 C 263.311 8.623,262.699 8.400,261.813 8.400 C 261.036 8.400,260.400 8.220,260.400 8.000 C 260.400 7.780,259.584 7.600,258.587 7.600 C 257.345 7.600,256.702 7.411,256.545 7.000 C 256.404 6.633,255.797 6.400,254.981 6.400 C 254.247 6.400,253.536 6.220,253.400 6.000 C 253.264 5.780,252.373 5.600,251.419 5.600 C 250.247 5.600,249.611 5.406,249.455 5.000 C 249.298 4.590,248.657 4.400,247.436 4.400 C 246.452 4.400,245.536 4.220,245.400 4.000 C 245.264 3.780,244.083 3.600,242.776 3.600 C 240.931 3.600,240.400 3.466,240.400 3.000 C 240.400 2.533,239.867 2.400,238.000 2.400 C 236.667 2.400,235.600 2.222,235.600 2.000 C 235.600 1.762,234.078 1.600,231.833 1.600 C 229.175 1.600,228.018 1.453,227.900 1.100 C 227.586 0.156,190.088 -0.374,176.432 0.372 M321.129 88.351 C 321.200 89.094,321.065 89.895,320.829 90.131 C 320.593 90.367,320.400 91.160,320.400 91.893 C 320.400 92.626,320.130 93.872,319.800 94.662 C 319.470 95.451,319.200 96.605,319.200 97.225 C 319.200 97.845,319.020 98.464,318.800 98.600 C 318.580 98.736,318.400 99.304,318.400 99.862 C 318.400 100.420,318.152 101.354,317.849 101.938 C 317.546 102.522,317.074 103.540,316.800 104.200 C 316.526 104.860,316.040 105.902,315.720 106.515 C 315.399 107.129,314.926 108.034,314.668 108.528 C 311.102 115.361,298.165 126.400,293.724 126.400 C 293.430 126.400,292.877 126.556,292.495 126.746 C 288.236 128.870,287.586 128.897,234.000 129.160 C 195.578 129.349,183.472 129.524,182.403 129.904 C 181.634 130.177,180.340 130.400,179.526 130.400 C 178.713 130.400,177.936 130.580,177.800 130.800 C 177.664 131.020,177.218 131.200,176.809 131.200 C 176.400 131.200,175.555 131.459,174.932 131.776 C 174.310 132.092,173.170 132.639,172.400 132.992 C 168.246 134.893,163.138 139.110,159.805 143.391 C 158.417 145.176,158.108 145.703,156.409 149.200 C 155.714 150.630,154.977 152.113,154.773 152.495 C 154.568 152.877,154.400 153.530,154.400 153.946 C 154.400 154.362,154.085 155.399,153.700 156.251 C 153.044 157.702,152.987 162.291,152.792 228.600 C 152.597 294.597,152.536 299.501,151.892 300.887 C 151.511 301.705,151.200 302.819,151.200 303.364 C 151.200 303.908,151.020 304.464,150.800 304.600 C 150.580 304.736,150.400 305.145,150.400 305.509 C 150.400 306.134,147.304 312.774,146.814 313.200 C 146.687 313.310,146.380 313.850,146.131 314.400 C 144.392 318.245,132.976 328.400,130.393 328.400 C 130.177 328.400,130.000 328.580,130.000 328.800 C 130.000 329.020,129.745 329.200,129.432 329.200 C 129.120 329.200,128.355 329.453,127.732 329.763 C 125.187 331.028,120.691 332.400,119.088 332.400 C 118.516 332.400,117.936 332.580,117.800 332.800 C 117.664 333.020,116.940 333.200,116.190 333.200 C 115.440 333.200,114.207 333.496,113.450 333.857 C 110.539 335.245,110.800 344.471,110.800 240.036 C 110.800 187.930,110.953 145.952,111.144 145.834 C 111.334 145.717,111.584 144.430,111.701 142.974 C 111.818 141.518,112.113 140.127,112.357 139.883 C 112.601 139.639,112.800 138.857,112.800 138.144 C 112.800 137.431,112.980 136.736,113.200 136.600 C 113.420 136.464,113.601 135.958,113.602 135.476 C 113.604 134.994,113.874 134.084,114.202 133.454 C 114.531 132.824,114.800 132.057,114.800 131.749 C 114.800 131.184,114.923 130.881,116.132 128.468 C 116.500 127.735,116.800 126.880,116.800 126.568 C 116.800 126.255,116.980 126.000,117.200 126.000 C 117.420 126.000,117.600 125.662,117.600 125.249 C 117.600 124.836,117.870 124.274,118.200 124.000 C 118.530 123.726,118.800 123.164,118.800 122.751 C 118.800 122.338,118.959 122.000,119.153 122.000 C 119.348 122.000,119.626 121.685,119.771 121.300 C 120.267 119.985,120.989 118.800,121.295 118.800 C 121.463 118.800,121.600 118.543,121.600 118.229 C 121.600 117.914,121.825 117.419,122.100 117.129 C 122.375 116.838,123.393 115.520,124.363 114.200 C 126.616 111.133,135.074 102.681,138.200 100.372 C 139.520 99.398,140.838 98.375,141.129 98.100 C 141.419 97.825,141.914 97.600,142.229 97.600 C 142.543 97.600,142.801 97.465,142.803 97.300 C 142.805 97.135,143.210 96.802,143.703 96.560 C 144.196 96.318,146.543 95.103,148.917 93.860 C 151.292 92.617,153.576 91.600,153.994 91.600 C 154.411 91.600,154.864 91.420,155.000 91.200 C 155.136 90.980,155.642 90.794,156.124 90.787 C 156.606 90.780,157.349 90.510,157.776 90.187 C 158.204 89.864,159.138 89.600,159.853 89.600 C 160.568 89.600,161.264 89.420,161.400 89.200 C 161.536 88.980,162.312 88.797,163.124 88.794 C 163.936 88.791,165.320 88.529,166.200 88.212 C 167.080 87.895,168.520 87.624,169.400 87.611 C 170.280 87.598,171.270 87.413,171.600 87.199 C 171.984 86.951,198.999 86.845,246.600 86.906 L 321.000 87.000 321.129 88.351 M283.848 188.300 C 283.716 189.125,283.492 190.569,283.351 191.509 C 283.210 192.449,282.938 193.315,282.747 193.433 C 282.556 193.551,282.394 194.312,282.386 195.124 C 282.378 195.936,282.114 197.050,281.800 197.600 C 281.486 198.150,281.222 199.084,281.214 199.676 C 281.206 200.268,281.020 200.864,280.800 201.000 C 280.580 201.136,280.400 201.565,280.400 201.953 C 280.400 204.218,273.897 214.176,270.299 217.421 C 267.674 219.787,264.168 222.400,263.617 222.400 C 263.388 222.400,263.200 222.539,263.200 222.709 C 263.200 222.879,262.615 223.305,261.900 223.655 C 257.630 225.746,256.120 226.400,255.561 226.400 C 255.216 226.400,254.805 226.529,254.647 226.686 C 254.243 227.091,251.057 227.949,248.000 228.477 C 246.204 228.788,232.974 228.938,205.200 228.963 L 165.000 229.000 164.885 224.835 C 164.816 222.335,164.936 220.504,165.185 220.255 C 165.413 220.027,165.601 219.381,165.602 218.820 C 165.604 218.259,165.874 217.284,166.202 216.654 C 166.531 216.024,166.800 215.257,166.800 214.949 C 166.800 214.384,166.923 214.081,168.132 211.668 C 168.500 210.935,168.800 210.140,168.800 209.902 C 168.800 207.292,182.215 192.800,184.631 192.800 C 184.890 192.800,185.326 192.530,185.600 192.200 C 185.874 191.870,186.436 191.600,186.849 191.600 C 187.262 191.600,187.600 191.420,187.600 191.200 C 187.600 190.980,187.915 190.794,188.300 190.787 C 188.685 190.780,189.349 190.510,189.776 190.187 C 190.204 189.864,190.879 189.600,191.276 189.600 C 191.674 189.600,192.000 189.420,192.000 189.200 C 192.000 188.980,192.338 188.800,192.751 188.800 C 193.164 188.800,194.149 188.530,194.938 188.200 C 195.728 187.870,196.965 187.597,197.687 187.594 C 198.409 187.591,199.270 187.413,199.600 187.200 C 199.977 186.956,215.755 186.810,242.144 186.806 L 284.088 186.800 283.848 188.300 " stroke="none" fill="#040404" fill-rule="evenodd"></path><path id="path3" d="M246.977 87.499 C 304.885 87.581,320.228 87.706,320.508 88.101 C 320.769 88.470,320.818 88.443,320.697 88.000 C 320.552 87.469,312.041 87.400,247.167 87.398 L 173.800 87.397 246.977 87.499 M166.800 88.418 C 166.362 88.715,166.524 88.752,167.400 88.556 C 168.871 88.227,169.190 87.998,168.167 88.006 C 167.745 88.009,167.130 88.195,166.800 88.418 M155.200 91.400 C 154.650 91.714,154.380 91.972,154.600 91.972 C 154.820 91.972,155.450 91.714,156.000 91.400 C 156.550 91.086,156.820 90.828,156.600 90.828 C 156.380 90.828,155.750 91.086,155.200 91.400 M133.781 104.500 L 132.200 106.200 133.900 104.619 C 135.481 103.148,135.784 102.800,135.481 102.800 C 135.416 102.800,134.651 103.565,133.781 104.500 M310.800 113.200 C 310.330 113.860,310.036 114.400,310.146 114.400 C 310.256 114.400,310.730 113.860,311.200 113.200 C 311.670 112.540,311.964 112.000,311.854 112.000 C 311.744 112.000,311.270 112.540,310.800 113.200 M209.531 129.100 C 222.803 129.158,244.403 129.158,257.531 129.100 C 270.659 129.041,259.800 128.994,233.400 128.994 C 207.000 128.994,196.259 129.041,209.531 129.100 M181.000 129.600 C 179.981 130.038,181.032 130.038,182.400 129.600 C 183.204 129.343,183.243 129.277,182.600 129.268 C 182.160 129.262,181.440 129.411,181.000 129.600 M110.997 241.200 C 110.997 291.910,111.043 312.655,111.100 287.300 C 111.157 261.945,111.157 220.455,111.100 195.100 C 111.043 169.745,110.997 190.490,110.997 241.200 M152.195 228.800 C 152.195 265.870,152.242 281.035,152.300 262.500 C 152.357 243.965,152.357 213.635,152.300 195.100 C 152.242 176.565,152.195 191.730,152.195 228.800 M223.300 187.100 C 234.245 187.159,252.155 187.159,263.100 187.100 C 274.045 187.041,265.090 186.992,243.200 186.992 C 221.310 186.992,212.355 187.041,223.300 187.100 M282.846 190.867 C 282.821 191.234,282.696 191.864,282.570 192.267 C 282.352 192.962,282.363 192.963,282.797 192.287 C 283.048 191.896,283.173 191.266,283.073 190.887 C 282.911 190.268,282.888 190.266,282.846 190.867 M280.715 199.410 C 280.592 199.845,280.369 200.560,280.220 201.000 C 280.071 201.440,280.242 201.294,280.600 200.676 C 280.958 200.058,281.181 199.342,281.095 199.086 C 281.010 198.830,280.839 198.976,280.715 199.410 M164.970 225.596 C 164.994 227.958,165.127 228.601,165.600 228.634 C 165.930 228.658,165.983 228.603,165.717 228.512 C 165.419 228.411,165.177 227.244,165.087 225.474 L 164.939 222.600 164.970 225.596 M242.100 228.676 C 242.485 228.776,243.115 228.776,243.500 228.676 C 243.885 228.575,243.570 228.493,242.800 228.493 C 242.030 228.493,241.715 228.575,242.100 228.676 M140.400 320.600 C 139.428 321.590,138.723 322.400,138.833 322.400 C 138.943 322.400,139.828 321.590,140.800 320.600 C 141.772 319.610,142.477 318.800,142.367 318.800 C 142.257 318.800,141.372 319.610,140.400 320.600 M112.000 333.600 C 111.176 333.864,111.141 333.926,111.800 333.954 C 112.240 333.973,112.870 333.813,113.200 333.600 C 113.901 333.147,113.414 333.147,112.000 333.600 " stroke="none" fill="#582a15" fill-rule="evenodd"></path><path id="path4" d="M171.738 87.106 C 171.484 87.267,204.874 87.400,245.938 87.400 L 320.600 87.400 320.552 88.928 C 320.522 89.885,320.645 90.315,320.881 90.079 C 321.089 89.871,321.200 89.094,321.129 88.351 L 321.000 87.000 246.600 86.906 C 205.680 86.854,171.992 86.944,171.738 87.106 M168.300 87.882 C 168.795 87.978,169.605 87.978,170.100 87.882 C 170.595 87.787,170.190 87.709,169.200 87.709 C 168.210 87.709,167.805 87.787,168.300 87.882 M165.600 88.400 C 165.067 88.745,165.067 88.788,165.600 88.788 C 165.930 88.788,166.470 88.613,166.800 88.400 C 167.333 88.055,167.333 88.012,166.800 88.012 C 166.470 88.012,165.930 88.187,165.600 88.400 M161.400 89.200 C 161.108 89.673,161.499 89.673,162.600 89.200 C 163.371 88.869,163.369 88.855,162.524 88.828 C 162.042 88.813,161.536 88.980,161.400 89.200 M157.776 90.187 C 157.349 90.510,157.189 90.780,157.420 90.787 C 157.651 90.794,158.011 90.634,158.220 90.431 C 158.429 90.228,159.140 89.985,159.800 89.891 L 161.000 89.720 159.776 89.660 C 159.104 89.627,158.204 89.864,157.776 90.187 M319.933 92.600 C 319.793 93.480,319.568 94.560,319.434 95.000 C 319.299 95.440,319.471 95.192,319.816 94.450 C 320.161 93.707,320.386 92.627,320.315 92.050 C 320.212 91.203,320.138 91.310,319.933 92.600 M152.176 92.187 C 151.749 92.510,151.589 92.780,151.820 92.787 C 152.051 92.794,152.411 92.637,152.620 92.439 C 152.829 92.240,153.360 91.991,153.800 91.885 C 154.580 91.697,154.580 91.692,153.776 91.646 C 153.324 91.621,152.604 91.864,152.176 92.187 M149.057 93.667 C 148.208 94.096,147.602 94.535,147.710 94.643 C 147.874 94.807,150.630 93.463,151.167 92.957 C 151.564 92.583,150.480 92.948,149.057 93.667 M145.824 95.413 C 145.396 95.736,145.227 96.000,145.447 96.000 C 145.667 96.000,146.196 95.736,146.624 95.413 C 147.051 95.090,147.220 94.825,147.000 94.825 C 146.780 94.825,146.251 95.090,145.824 95.413 M142.800 97.157 C 142.800 97.353,142.350 97.626,141.800 97.764 C 141.250 97.902,140.800 98.178,140.800 98.377 C 140.800 98.576,141.336 98.471,141.992 98.144 C 143.269 97.507,143.917 96.800,143.224 96.800 C 142.991 96.800,142.800 96.960,142.800 97.157 M139.000 99.788 C 138.340 100.329,137.943 100.778,138.117 100.786 C 138.292 100.794,138.920 100.350,139.513 99.800 C 140.898 98.516,140.561 98.508,139.000 99.788 M317.728 101.100 C 317.314 102.428,317.325 102.511,317.830 101.824 C 318.308 101.173,318.639 99.600,318.298 99.600 C 318.242 99.600,317.985 100.275,317.728 101.100 M315.870 105.410 C 315.721 105.845,315.491 106.470,315.358 106.800 C 315.226 107.130,315.419 106.990,315.788 106.490 C 316.158 105.989,316.388 105.364,316.300 105.100 C 316.210 104.831,316.022 104.967,315.870 105.410 M129.007 108.793 C 128.152 109.669,127.530 110.445,127.626 110.518 C 127.722 110.591,128.498 109.874,129.352 108.925 C 131.301 106.759,131.077 106.673,129.007 108.793 M312.000 112.000 C 311.530 112.660,311.236 113.200,311.346 113.200 C 311.456 113.200,311.930 112.660,312.400 112.000 C 312.870 111.340,313.164 110.800,313.054 110.800 C 312.944 110.800,312.470 111.340,312.000 112.000 M123.588 115.277 L 122.688 116.600 123.784 115.474 C 124.388 114.854,124.792 114.259,124.684 114.151 C 124.576 114.043,124.082 114.549,123.588 115.277 M306.175 118.439 C 305.529 119.121,303.393 120.741,301.430 122.039 C 299.466 123.338,298.006 124.400,298.185 124.400 C 299.132 124.400,307.600 118.086,307.600 117.380 C 307.600 117.021,307.328 117.223,306.175 118.439 M295.000 125.600 C 294.864 125.820,294.358 126.021,293.876 126.046 C 293.211 126.082,293.167 126.137,293.693 126.274 C 294.073 126.374,294.789 126.173,295.282 125.828 C 295.775 125.483,295.969 125.200,295.713 125.200 C 295.457 125.200,295.136 125.380,295.000 125.600 M289.071 127.462 C 288.927 127.606,288.132 127.856,287.304 128.016 L 285.800 128.308 287.200 128.340 C 287.970 128.357,289.050 128.114,289.600 127.800 C 290.258 127.424,290.384 127.224,289.967 127.214 C 289.618 127.206,289.215 127.318,289.071 127.462 M116.032 128.339 C 115.795 128.784,115.601 129.384,115.602 129.674 C 115.604 129.963,115.877 129.678,116.210 129.040 C 116.542 128.403,116.736 127.802,116.640 127.706 C 116.543 127.610,116.270 127.895,116.032 128.339 M282.400 128.800 L 281.000 129.095 282.400 129.141 C 283.170 129.167,284.070 129.013,284.400 128.800 C 285.127 128.330,284.633 128.330,282.400 128.800 M183.141 129.393 C 183.035 129.499,181.970 129.748,180.774 129.946 C 179.414 130.171,179.049 130.321,179.800 130.346 C 180.460 130.367,181.900 130.134,183.000 129.828 C 184.100 129.522,184.625 129.255,184.167 129.236 C 183.708 129.216,183.247 129.287,183.141 129.393 M174.000 131.833 C 173.377 132.179,173.235 132.390,173.624 132.394 C 173.966 132.397,174.596 132.136,175.024 131.813 C 175.994 131.078,175.337 131.092,174.000 131.833 M164.451 138.052 C 162.647 139.621,161.243 140.976,161.330 141.064 C 161.418 141.151,162.369 140.420,163.445 139.440 C 164.520 138.459,166.030 137.107,166.800 136.435 C 167.570 135.763,168.094 135.210,167.965 135.206 C 167.836 135.203,166.254 136.484,164.451 138.052 M111.709 143.200 C 111.709 144.190,111.787 144.595,111.882 144.100 C 111.978 143.605,111.978 142.795,111.882 142.300 C 111.787 141.805,111.709 142.210,111.709 143.200 M160.151 142.500 C 158.851 143.983,158.165 145.096,159.229 143.995 C 160.475 142.706,161.348 141.600,161.119 141.600 C 161.020 141.600,160.585 142.005,160.151 142.500 M111.067 145.867 C 110.920 146.013,110.820 146.868,110.844 147.767 L 110.888 149.400 111.236 147.625 C 111.589 145.824,111.547 145.386,111.067 145.867 M156.031 148.831 C 155.577 149.770,155.282 150.615,155.375 150.708 C 155.468 150.801,155.915 150.109,156.369 149.169 C 156.823 148.230,157.118 147.385,157.025 147.292 C 156.932 147.199,156.485 147.891,156.031 148.831 M153.922 154.200 C 153.786 154.860,153.558 155.850,153.415 156.400 C 153.259 157.003,153.410 156.850,153.795 156.015 C 154.146 155.253,154.374 154.263,154.302 153.815 C 154.201 153.190,154.112 153.280,153.922 154.200 M152.653 160.036 C 152.514 160.731,152.443 190.933,152.495 227.150 L 152.591 293.000 152.795 226.000 C 152.908 189.150,152.979 158.949,152.953 158.886 C 152.927 158.823,152.792 159.341,152.653 160.036 M199.600 187.216 C 199.182 187.497,199.667 187.539,201.200 187.355 C 202.410 187.210,203.475 187.026,203.567 186.946 C 203.970 186.593,200.138 186.854,199.600 187.216 M283.129 187.148 C 283.492 187.378,283.585 187.972,283.425 189.042 C 283.254 190.182,283.292 190.385,283.568 189.800 C 284.226 188.400,284.083 186.799,283.300 186.806 C 282.769 186.811,282.727 186.893,283.129 187.148 M195.000 188.222 C 193.990 188.716,193.958 188.770,194.800 188.566 C 195.350 188.432,196.520 188.182,197.400 188.011 L 199.000 187.700 197.600 187.668 C 196.830 187.650,195.660 187.900,195.000 188.222 M185.600 192.200 C 185.256 192.615,185.241 192.800,185.551 192.800 C 185.798 192.800,186.000 192.633,186.000 192.429 C 186.000 192.225,186.315 191.976,186.700 191.876 C 187.291 191.721,187.298 191.686,186.749 191.646 C 186.391 191.621,185.874 191.870,185.600 192.200 M181.900 194.606 C 179.362 196.599,178.717 197.499,181.100 195.723 C 181.925 195.108,182.690 194.503,182.800 194.379 C 182.910 194.255,183.445 193.849,183.989 193.477 C 184.533 193.105,184.803 192.800,184.589 192.800 C 184.375 192.800,183.165 193.613,181.900 194.606 M281.949 195.600 C 281.824 196.370,281.593 197.360,281.435 197.800 C 281.278 198.240,281.442 198.095,281.799 197.478 C 282.156 196.861,282.387 195.871,282.312 195.278 C 282.188 194.293,282.156 194.321,281.949 195.600 M173.437 202.600 C 173.076 203.150,172.843 203.600,172.919 203.600 C 172.994 203.600,173.447 203.150,173.925 202.600 C 174.403 202.050,174.637 201.600,174.443 201.600 C 174.250 201.600,173.797 202.050,173.437 202.600 M280.046 202.276 C 280.021 202.758,279.820 203.264,279.600 203.400 C 279.380 203.536,279.200 203.857,279.200 204.113 C 279.200 204.369,279.483 204.175,279.828 203.682 C 280.173 203.189,280.374 202.473,280.274 202.093 C 280.137 201.567,280.082 201.611,280.046 202.276 M171.588 205.277 L 170.688 206.600 171.784 205.474 C 172.388 204.854,172.792 204.259,172.684 204.151 C 172.576 204.043,172.082 204.549,171.588 205.277 M169.633 208.233 C 169.157 209.040,168.842 209.776,168.934 209.867 C 169.026 209.959,169.490 209.374,169.967 208.567 C 170.443 207.760,170.758 207.024,170.666 206.933 C 170.574 206.841,170.110 207.426,169.633 208.233 M276.000 210.000 C 275.530 210.660,275.236 211.200,275.346 211.200 C 275.456 211.200,275.930 210.660,276.400 210.000 C 276.870 209.340,277.164 208.800,277.054 208.800 C 276.944 208.800,276.470 209.340,276.000 210.000 M167.988 211.622 C 167.746 212.074,167.607 212.622,167.680 212.839 C 167.752 213.057,168.018 212.687,168.271 212.017 C 168.797 210.625,168.639 210.405,167.988 211.622 M273.273 213.700 C 272.379 214.855,270.962 216.374,270.124 217.075 C 267.186 219.533,265.307 221.348,266.600 220.480 C 268.693 219.075,272.552 215.372,273.925 213.452 C 275.725 210.936,275.280 211.105,273.273 213.700 M165.067 220.267 C 164.920 220.413,164.816 221.088,164.836 221.767 L 164.872 223.000 165.259 221.656 C 165.645 220.313,165.569 219.764,165.067 220.267 M261.206 223.623 C 260.440 224.050,260.030 224.400,260.297 224.400 C 260.563 224.400,261.370 224.041,262.090 223.601 C 263.767 222.579,263.047 222.597,261.206 223.623 M257.000 225.600 C 256.864 225.820,256.358 226.021,255.876 226.046 C 255.211 226.082,255.167 226.137,255.693 226.274 C 256.073 226.374,256.789 226.173,257.282 225.828 C 257.775 225.483,257.969 225.200,257.713 225.200 C 257.457 225.200,257.136 225.380,257.000 225.600 M250.659 227.474 C 250.508 227.625,249.623 227.872,248.693 228.024 C 247.069 228.289,247.057 228.301,248.400 228.320 C 249.946 228.341,253.216 227.283,251.767 227.230 C 251.308 227.214,250.810 227.323,250.659 227.474 M165.062 228.900 C 165.302 229.288,244.852 229.282,245.462 228.894 C 245.716 228.732,227.688 228.600,205.400 228.600 C 183.112 228.600,164.960 228.735,165.062 228.900 M151.933 298.000 C 151.787 299.210,151.552 300.650,151.411 301.200 C 151.256 301.810,151.406 301.658,151.796 300.811 C 152.170 300.000,152.387 298.667,152.318 297.611 L 152.200 295.800 151.933 298.000 M150.046 305.876 C 150.021 306.358,149.820 306.864,149.600 307.000 C 149.380 307.136,149.200 307.457,149.200 307.713 C 149.200 307.969,149.483 307.775,149.828 307.282 C 150.173 306.789,150.374 306.073,150.274 305.693 C 150.137 305.167,150.082 305.211,150.046 305.876 M147.657 310.857 C 147.375 311.309,147.232 311.766,147.340 311.873 C 147.447 311.981,147.744 311.678,148.000 311.200 C 148.605 310.070,148.324 309.790,147.657 310.857 M144.805 315.737 C 144.038 316.872,141.878 319.327,140.005 321.193 C 138.132 323.059,137.325 324.021,138.210 323.331 C 141.132 321.052,146.882 314.340,146.354 313.824 C 146.269 313.742,145.572 314.602,144.805 315.737 M132.600 326.827 C 131.280 327.688,130.322 328.393,130.471 328.396 C 130.813 328.401,135.600 325.561,135.600 325.353 C 135.600 324.991,134.855 325.357,132.600 326.827 M127.000 329.814 C 126.340 330.117,126.081 330.372,126.424 330.382 C 126.766 330.392,127.396 330.136,127.824 329.813 C 128.772 329.096,128.569 329.096,127.000 329.814 M120.400 331.820 C 119.219 332.158,118.944 332.336,119.600 332.337 C 120.150 332.338,121.230 332.097,122.000 331.800 C 123.756 331.124,122.789 331.136,120.400 331.820 M116.600 332.800 C 115.829 333.131,115.831 333.145,116.676 333.172 C 117.158 333.187,117.664 333.020,117.800 332.800 C 118.092 332.327,117.701 332.327,116.600 332.800 M110.806 333.513 C 110.796 334.318,111.902 334.538,113.220 333.992 C 114.821 333.329,114.506 333.078,112.856 333.701 C 111.776 334.109,111.502 334.091,111.188 333.594 C 110.924 333.177,110.810 333.152,110.806 333.513 " stroke="none" fill="#341c0c" fill-rule="evenodd"></path></g></svg>