<svg xmlns="http://www.w3.org/2000/svg" xmlns:xlink="http://www.w3.org/1999/xlink" id="svg" width="400" height="400" version="1.1" viewBox="0 0 400 400"><g id="svgg"><path id="path0" fill="#eb7333" fill-rule="evenodd" stroke="none" d="M175.000 107.398 C 167.661 108.944,164.623 110.126,157.200 114.321 C 146.945 120.117,136.863 133.609,133.528 146.000 C 131.781 152.492,131.878 148.138,131.720 227.166 C 131.627 274.366,131.713 301.873,131.955 302.115 C 132.303 302.463,134.535 302.028,141.000 300.350 C 149.702 298.092,158.545 289.686,161.877 280.505 C 163.988 274.691,163.995 274.483,164.000 216.600 C 164.003 180.191,164.140 162.487,164.428 161.400 C 166.750 152.621,172.377 145.428,179.784 141.770 C 185.612 138.891,182.519 139.080,228.600 138.786 C 272.778 138.504,270.012 138.622,276.000 136.759 C 283.380 134.463,290.620 128.065,294.408 120.492 C 295.889 117.531,298.388 109.141,298.397 107.100 C 298.400 106.436,295.315 106.402,238.900 106.435 L 179.400 106.471 175.000 107.398 M203.600 186.426 C 192.125 187.592,181.350 195.736,177.300 206.305 C 175.508 210.979,175.260 211.934,174.963 215.300 L 174.690 218.400 206.719 218.400 C 240.848 218.400,240.858 218.399,246.576 216.415 C 255.489 213.322,262.976 205.759,266.151 196.641 C 267.384 193.100,268.860 186.821,268.570 186.351 C 268.306 185.924,207.855 185.993,203.600 186.426"/><path id="path1" fill="#040404" fill-rule="evenodd" stroke="none" d="M0.000 200.000 L 0.000 400.000 200.000 400.000 L 400.000 400.000 400.000 200.000 L 400.000 0.000 200.000 0.000 L 0.000 0.000 0.000 200.000 M299.031 107.700 C 298.881 108.855,298.599 110.430,298.403 111.200 C 298.207 111.970,297.834 113.500,297.574 114.600 C 295.624 122.848,288.451 131.718,280.600 135.591 C 272.322 139.674,273.497 139.584,228.400 139.593 C 186.303 139.601,186.687 139.582,181.400 141.902 C 174.173 145.071,168.003 152.005,165.827 159.404 C 164.495 163.933,164.400 168.032,164.398 221.390 C 164.396 256.066,164.254 275.157,163.989 276.200 C 163.054 279.885,162.555 281.188,160.691 284.798 C 156.457 292.999,147.695 299.913,139.400 301.598 C 138.080 301.866,136.550 302.246,136.000 302.442 C 135.450 302.639,134.100 302.844,133.000 302.900 L 131.000 303.000 130.872 229.800 C 130.780 177.193,130.870 155.700,131.193 153.400 C 133.226 138.914,140.405 126.380,152.053 116.981 C 156.991 112.997,165.325 108.739,170.400 107.608 C 172.765 107.081,177.745 106.055,178.800 105.877 C 179.350 105.785,206.688 105.684,239.552 105.654 L 299.303 105.600 299.031 107.700 M269.129 185.548 C 269.737 185.933,269.589 187.051,268.192 192.600 C 264.747 206.285,256.362 214.758,242.600 218.462 C 241.000 218.892,233.960 219.000,207.400 219.000 L 174.200 219.000 174.067 217.000 C 173.916 214.750,174.467 211.753,175.684 208.200 C 179.611 196.731,189.950 187.798,201.600 185.810 C 205.082 185.215,268.219 184.970,269.129 185.548"/><path id="path2" fill="#813e1d" fill-rule="evenodd" stroke="none" d="M239.271 106.299 C 286.014 106.381,298.377 106.507,298.509 106.901 C 298.605 107.186,298.658 107.142,298.633 106.800 C 298.594 106.270,291.725 106.200,239.395 106.198 L 180.200 106.196 239.271 106.299 M176.400 106.800 C 175.056 107.231,176.508 107.231,178.200 106.800 C 179.278 106.526,179.298 106.494,178.400 106.487 C 177.850 106.483,176.950 106.624,176.400 106.800 M172.600 107.600 C 171.581 108.038,172.632 108.038,174.000 107.600 C 174.804 107.343,174.843 107.277,174.200 107.268 C 173.760 107.262,173.040 107.411,172.600 107.600 M169.200 108.400 C 168.405 108.914,169.404 108.914,170.600 108.400 L 171.400 108.056 170.600 108.034 C 170.160 108.022,169.530 108.187,169.200 108.400 M297.850 109.650 C 297.517 111.317,297.840 111.640,298.200 110.000 C 298.352 109.309,298.393 108.659,298.291 108.558 C 298.189 108.456,297.991 108.947,297.850 109.650 M166.800 109.200 C 166.267 109.545,166.267 109.588,166.800 109.588 C 167.130 109.588,167.670 109.413,168.000 109.200 C 168.533 108.855,168.533 108.812,168.000 108.812 C 167.670 108.812,167.130 108.987,166.800 109.200 M159.200 112.833 L 158.200 113.648 159.500 113.014 C 160.215 112.665,160.800 112.294,160.800 112.190 C 160.800 111.792,160.163 112.048,159.200 112.833 M297.050 113.250 C 296.717 114.917,297.040 115.240,297.400 113.600 C 297.552 112.909,297.593 112.259,297.491 112.158 C 297.389 112.056,297.191 112.547,297.050 113.250 M156.400 114.433 L 155.400 115.248 156.700 114.614 C 157.415 114.265,158.000 113.894,158.000 113.790 C 158.000 113.392,157.363 113.648,156.400 114.433 M153.200 116.618 C 150.116 119.033,148.818 120.188,148.809 120.524 C 148.804 120.702,149.835 119.947,151.100 118.846 C 152.365 117.746,153.850 116.481,154.400 116.036 C 154.950 115.591,155.310 115.222,155.200 115.217 C 155.090 115.212,154.190 115.842,153.200 116.618 M146.395 122.700 C 143.692 125.660,142.878 126.669,143.710 126.030 C 144.523 125.407,148.569 120.800,148.305 120.800 C 148.209 120.800,147.349 121.655,146.395 122.700 M293.386 122.500 L 292.752 123.800 293.567 122.800 C 294.352 121.837,294.608 121.200,294.210 121.200 C 294.106 121.200,293.735 121.785,293.386 122.500 M291.002 125.997 C 290.196 127.095,288.336 129.099,286.868 130.450 C 285.401 131.801,284.631 132.623,285.157 132.276 C 286.763 131.217,290.387 127.563,291.647 125.732 C 293.288 123.346,292.801 123.547,291.002 125.997 M142.321 127.500 C 141.123 128.890,138.483 133.052,137.255 135.489 C 135.357 139.252,135.765 139.063,137.826 135.224 C 138.823 133.367,140.449 130.712,141.439 129.324 C 143.167 126.902,143.590 126.027,142.321 127.500 M281.500 134.229 C 280.895 134.557,280.400 134.910,280.400 135.013 C 280.400 135.399,281.032 135.157,282.000 134.400 C 283.189 133.470,283.011 133.409,281.500 134.229 M275.800 136.834 C 274.700 137.259,274.320 137.505,274.956 137.381 C 276.214 137.137,278.850 136.066,278.200 136.064 C 277.980 136.063,276.900 136.409,275.800 136.834 M271.400 138.000 L 270.600 138.344 271.400 138.344 C 271.840 138.344,272.560 138.189,273.000 138.000 L 273.800 137.656 273.000 137.656 C 272.560 137.656,271.840 137.811,271.400 138.000 M228.000 138.800 L 189.400 139.006 227.800 139.073 C 248.920 139.110,267.010 138.997,268.000 138.820 L 269.800 138.500 268.200 138.547 C 267.320 138.573,249.230 138.687,228.000 138.800 M185.600 139.600 L 184.600 139.920 185.600 139.920 C 186.150 139.920,187.050 139.776,187.600 139.600 L 188.600 139.280 187.600 139.280 C 187.050 139.280,186.150 139.424,185.600 139.600 M182.800 140.400 C 182.267 140.745,182.267 140.788,182.800 140.788 C 183.130 140.788,183.670 140.613,184.000 140.400 C 184.533 140.055,184.533 140.012,184.000 140.012 C 183.670 140.012,183.130 140.187,182.800 140.400 M179.113 142.062 C 173.303 145.215,167.168 152.209,165.836 157.200 C 165.689 157.750,166.179 156.940,166.925 155.400 C 169.575 149.927,174.354 144.968,179.500 142.351 C 180.875 141.652,182.000 141.017,182.000 140.940 C 182.000 140.609,181.261 140.897,179.113 142.062 M133.800 143.600 C 133.650 144.073,133.617 144.550,133.727 144.660 C 133.837 144.770,134.050 144.473,134.200 144.000 C 134.350 143.527,134.383 143.050,134.273 142.940 C 134.163 142.830,133.950 143.127,133.800 143.600 M133.000 146.400 C 132.850 146.873,132.817 147.350,132.927 147.460 C 133.037 147.570,133.250 147.273,133.400 146.800 C 133.550 146.327,133.583 145.850,133.473 145.740 C 133.363 145.630,133.150 145.927,133.000 146.400 M132.276 149.210 C 132.130 149.755,132.027 150.650,132.046 151.200 C 132.071 151.918,132.184 151.757,132.449 150.627 C 132.855 148.895,132.700 147.625,132.276 149.210 M131.415 156.100 C 130.652 164.835,131.389 302.587,132.200 302.730 C 132.953 302.864,132.958 302.840,132.288 302.332 C 131.609 301.818,131.581 298.344,131.688 227.496 C 131.750 186.633,131.770 153.200,131.734 153.200 C 131.698 153.200,131.554 154.505,131.415 156.100 M164.200 162.400 C 164.046 163.310,164.011 164.144,164.121 164.254 C 164.231 164.364,164.446 163.710,164.600 162.800 C 164.754 161.890,164.789 161.056,164.679 160.946 C 164.569 160.836,164.354 161.490,164.200 162.400 M204.200 185.957 C 203.320 186.091,217.495 186.200,235.700 186.200 C 253.905 186.200,268.800 186.065,268.800 185.900 C 268.800 185.546,206.542 185.601,204.200 185.957 M199.000 186.800 L 198.200 187.144 199.000 187.144 C 199.440 187.144,200.160 186.989,200.600 186.800 L 201.400 186.456 200.600 186.456 C 200.160 186.456,199.440 186.611,199.000 186.800 M195.653 187.853 C 194.913 188.176,194.392 188.525,194.495 188.628 C 194.599 188.732,195.475 188.466,196.442 188.037 C 197.409 187.608,197.930 187.258,197.600 187.261 C 197.270 187.263,196.394 187.530,195.653 187.853 M268.200 188.800 C 268.048 189.491,268.014 190.147,268.124 190.257 C 268.234 190.367,268.448 189.891,268.600 189.200 C 268.752 188.509,268.786 187.853,268.676 187.743 C 268.566 187.633,268.352 188.109,268.200 188.800 M189.800 190.883 C 188.565 191.590,183.891 195.439,183.036 196.454 C 181.572 198.188,178.400 202.667,178.400 202.999 C 178.400 203.182,179.145 202.268,180.056 200.966 C 182.925 196.867,186.644 193.202,190.247 190.924 C 191.213 190.312,190.854 190.279,189.800 190.883 M267.450 192.050 C 267.117 193.717,267.440 194.040,267.800 192.400 C 267.952 191.709,267.993 191.059,267.891 190.958 C 267.789 190.856,267.591 191.347,267.450 192.050 M265.276 198.902 C 264.781 200.097,263.588 202.273,262.627 203.738 C 261.665 205.202,260.995 206.398,261.139 206.397 C 261.829 206.387,266.567 197.902,266.311 197.133 C 266.237 196.911,265.771 197.707,265.276 198.902 M258.386 209.100 L 256.200 211.400 258.500 209.214 C 260.637 207.182,260.983 206.800,260.686 206.800 C 260.624 206.800,259.589 207.835,258.386 209.100 M175.400 210.400 C 175.250 210.873,175.217 211.350,175.327 211.460 C 175.437 211.570,175.650 211.273,175.800 210.800 C 175.950 210.327,175.983 209.850,175.873 209.740 C 175.763 209.630,175.550 209.927,175.400 210.400 M253.711 212.733 C 252.562 213.515,251.694 214.227,251.783 214.316 C 251.906 214.439,254.938 212.570,255.967 211.735 C 256.997 210.899,255.305 211.648,253.711 212.733 M174.591 214.524 C 174.448 215.471,174.392 216.776,174.466 217.424 L 174.600 218.600 206.300 218.604 L 238.000 218.607 206.343 218.501 L 174.686 218.395 174.946 215.598 C 175.232 212.514,174.998 211.806,174.591 214.524 M240.600 218.000 C 239.511 218.277,239.493 218.307,240.400 218.325 C 240.950 218.335,241.760 218.189,242.200 218.000 C 243.186 217.576,242.266 217.576,240.600 218.000 M163.670 272.250 C 163.631 272.938,163.505 274.108,163.389 274.850 C 163.196 276.086,163.215 276.117,163.608 275.214 C 163.844 274.672,163.971 273.502,163.889 272.614 C 163.768 271.302,163.727 271.233,163.670 272.250 M162.846 277.267 C 162.821 277.634,162.696 278.264,162.570 278.667 C 162.352 279.362,162.363 279.363,162.797 278.687 C 163.048 278.296,163.173 277.666,163.073 277.287 C 162.911 276.668,162.888 276.666,162.846 277.267 M158.582 287.082 C 157.969 288.137,156.107 290.440,154.443 292.200 L 151.419 295.400 154.145 292.800 C 156.758 290.308,160.276 285.743,159.884 285.351 C 159.781 285.248,159.196 286.027,158.582 287.082 M147.500 297.429 C 146.895 297.757,146.400 298.110,146.400 298.213 C 146.400 298.599,147.032 298.357,148.000 297.600 C 149.189 296.670,149.011 296.609,147.500 297.429 M137.400 301.200 L 136.600 301.544 137.400 301.544 C 137.840 301.544,138.560 301.389,139.000 301.200 L 139.800 300.856 139.000 300.856 C 138.560 300.856,137.840 301.011,137.400 301.200 M134.200 302.000 L 133.400 302.344 134.200 302.366 C 134.640 302.378,135.270 302.213,135.600 302.000 C 136.395 301.486,135.396 301.486,134.200 302.000"/><path id="path3" fill="#5e2c16" fill-rule="evenodd" stroke="none" d="M240.800 105.898 C 294.202 105.991,298.235 106.045,298.700 106.676 C 298.975 107.048,299.200 107.175,299.200 106.956 C 299.200 105.601,299.105 105.599,240.820 105.699 L 183.400 105.797 240.800 105.898 M287.775 130.100 L 286.600 131.400 287.900 130.225 C 288.615 129.579,289.200 128.994,289.200 128.925 C 289.200 128.616,288.870 128.888,287.775 130.100 M164.194 217.600 C 164.194 246.970,164.242 258.985,164.300 244.300 C 164.358 229.615,164.358 205.585,164.300 190.900 C 164.242 176.215,164.194 188.230,164.194 217.600 M258.981 208.900 L 257.400 210.600 259.100 209.019 C 260.035 208.149,260.800 207.384,260.800 207.319 C 260.800 207.016,260.452 207.319,258.981 208.900 M174.742 218.902 C 174.909 219.069,188.985 219.159,206.022 219.102 L 237.000 219.000 205.720 218.800 C 188.516 218.690,174.576 218.736,174.742 218.902 M154.786 292.300 L 152.600 294.600 154.900 292.414 C 157.037 290.382,157.383 290.000,157.086 290.000 C 157.024 290.000,155.989 291.035,154.786 292.300"/><path id="path4" fill="#381c0c" fill-rule="evenodd" stroke="none" d="M180.500 105.887 C 181.105 105.978,182.095 105.978,182.700 105.887 C 183.305 105.795,182.810 105.720,181.600 105.720 C 180.390 105.720,179.895 105.795,180.500 105.887 M177.300 106.276 C 177.685 106.376,178.315 106.376,178.700 106.276 C 179.085 106.175,178.770 106.093,178.000 106.093 C 177.230 106.093,176.915 106.175,177.300 106.276 M168.200 108.252 C 166.935 108.870,167.160 108.843,170.200 108.011 C 171.293 107.711,171.311 107.681,170.400 107.673 C 169.850 107.669,168.860 107.929,168.200 108.252 M164.000 109.800 C 162.694 110.547,163.151 110.555,164.854 109.816 C 165.594 109.494,165.930 109.231,165.600 109.230 C 165.270 109.229,164.550 109.486,164.000 109.800 M158.900 112.412 C 157.745 113.074,156.800 113.710,156.800 113.825 C 156.800 114.043,160.321 112.114,160.980 111.534 C 161.681 110.918,161.015 111.199,158.900 112.412 M154.385 115.229 L 153.000 116.458 154.600 115.345 C 155.480 114.733,156.275 114.180,156.367 114.116 C 156.458 114.052,156.362 114.000,156.152 114.000 C 155.942 114.000,155.147 114.553,154.385 115.229 M296.629 116.429 C 296.258 117.561,296.027 118.560,296.115 118.649 C 296.203 118.737,296.576 117.879,296.943 116.743 C 297.310 115.607,297.541 114.608,297.456 114.523 C 297.372 114.438,296.999 115.296,296.629 116.429 M146.992 121.700 L 143.000 125.800 147.100 121.808 C 150.908 118.099,151.382 117.600,151.092 117.600 C 151.033 117.600,149.188 119.445,146.992 121.700 M292.892 124.229 C 292.397 124.983,292.072 125.600,292.169 125.600 C 292.447 125.600,294.104 123.171,293.939 123.006 C 293.857 122.924,293.386 123.474,292.892 124.229 M141.775 127.468 C 141.159 128.276,140.859 128.811,141.109 128.656 C 141.621 128.340,143.353 126.000,143.075 126.000 C 142.976 126.000,142.391 126.661,141.775 127.468 M289.426 128.700 C 288.121 130.185,287.643 130.860,288.364 130.200 C 289.618 129.051,292.212 126.000,291.934 126.000 C 291.860 126.000,290.732 127.215,289.426 128.700 M137.814 133.435 C 137.441 134.004,137.205 134.538,137.289 134.622 C 137.373 134.707,137.758 134.241,138.144 133.588 C 139.006 132.128,138.748 132.009,137.814 133.435 M283.281 133.772 C 281.423 135.085,281.162 135.461,282.731 134.562 C 283.463 134.143,284.250 133.575,284.480 133.300 C 285.071 132.593,284.793 132.702,283.281 133.772 M270.900 138.676 C 271.285 138.776,271.915 138.776,272.300 138.676 C 272.685 138.575,272.370 138.493,271.600 138.493 C 270.830 138.493,270.515 138.575,270.900 138.676 M134.491 140.500 C 133.810 142.384,133.904 142.894,134.626 141.230 C 134.953 140.477,135.166 139.699,135.101 139.502 C 135.035 139.305,134.760 139.754,134.491 140.500 M209.100 139.500 C 219.935 139.559,237.665 139.559,248.500 139.500 C 259.335 139.441,250.470 139.392,228.800 139.392 C 207.130 139.392,198.265 139.441,209.100 139.500 M184.400 140.395 C 183.991 140.655,184.310 140.699,185.400 140.532 C 187.377 140.229,187.714 139.998,186.167 140.006 C 185.525 140.009,184.730 140.184,184.400 140.395 M180.000 142.200 C 179.450 142.514,179.180 142.772,179.400 142.772 C 179.620 142.772,180.250 142.514,180.800 142.200 C 181.350 141.886,181.620 141.628,181.400 141.628 C 181.180 141.628,180.550 141.886,180.000 142.200 M176.480 144.296 C 175.368 145.118,174.517 145.851,174.590 145.923 C 174.662 145.995,175.594 145.392,176.661 144.583 C 178.932 142.860,179.001 142.800,178.717 142.800 C 178.598 142.800,177.592 143.473,176.480 144.296 M132.649 145.815 C 132.512 146.173,132.415 146.766,132.434 147.133 C 132.453 147.500,132.627 147.269,132.821 146.620 C 133.198 145.358,133.065 144.733,132.649 145.815 M172.170 148.100 C 170.474 149.905,168.599 152.211,169.650 151.200 C 170.859 150.036,174.107 146.400,173.938 146.400 C 173.844 146.400,173.048 147.165,172.170 148.100 M131.701 150.600 C 131.705 151.480,131.787 151.793,131.883 151.295 C 131.979 150.798,131.975 150.078,131.875 149.695 C 131.775 149.313,131.696 149.720,131.701 150.600 M167.916 153.700 C 167.278 154.696,166.743 156.000,166.972 156.000 C 167.053 156.000,167.495 155.280,167.953 154.400 C 168.860 152.660,168.839 152.258,167.916 153.700 M130.897 228.476 C 130.844 269.328,130.935 302.836,131.100 302.938 C 131.371 303.106,131.370 252.276,131.097 181.000 C 131.040 166.260,130.951 187.624,130.897 228.476 M165.049 160.615 C 164.912 160.973,164.821 161.746,164.846 162.333 C 164.880 163.132,164.970 162.998,165.204 161.800 C 165.535 160.100,165.462 159.540,165.049 160.615 M164.501 165.400 C 164.505 166.280,164.587 166.593,164.683 166.095 C 164.779 165.598,164.775 164.878,164.675 164.495 C 164.575 164.113,164.496 164.520,164.501 165.400 M220.530 185.500 C 229.511 185.560,244.091 185.560,252.930 185.500 C 261.768 185.440,254.420 185.391,236.600 185.391 C 218.780 185.391,211.548 185.440,220.530 185.500 M199.700 186.276 C 200.085 186.376,200.715 186.376,201.100 186.276 C 201.485 186.175,201.170 186.093,200.400 186.093 C 199.630 186.093,199.315 186.175,199.700 186.276 M268.849 188.200 C 268.816 188.640,268.696 189.450,268.583 190.000 L 268.377 191.000 268.806 190.019 C 269.042 189.479,269.161 188.669,269.072 188.219 C 268.913 187.421,268.907 187.421,268.849 188.200 M192.207 189.014 C 191.112 189.570,190.032 190.212,189.807 190.441 C 189.583 190.669,190.525 190.283,191.900 189.582 C 193.275 188.881,194.400 188.239,194.400 188.154 C 194.400 187.912,194.315 187.945,192.207 189.014 M187.800 191.835 L 186.600 192.866 187.900 192.006 C 188.615 191.533,189.200 191.068,189.200 190.973 C 189.200 190.673,189.031 190.778,187.800 191.835 M183.564 195.500 C 181.743 197.394,179.277 200.350,180.644 199.000 C 182.139 197.523,186.095 193.200,185.951 193.200 C 185.854 193.200,184.780 194.235,183.564 195.500 M267.246 194.867 C 267.221 195.234,267.096 195.864,266.970 196.267 C 266.752 196.962,266.763 196.963,267.197 196.287 C 267.448 195.896,267.573 195.266,267.473 194.887 C 267.311 194.268,267.288 194.266,267.246 194.867 M176.457 206.044 C 175.986 207.178,175.608 208.308,175.617 208.553 C 175.626 208.799,176.076 207.935,176.617 206.633 C 177.157 205.331,177.535 204.202,177.457 204.124 C 177.379 204.045,176.929 204.909,176.457 206.044 M259.600 208.344 C 258.390 209.608,256.590 211.326,255.600 212.162 L 253.800 213.682 255.800 212.174 C 258.394 210.218,260.274 208.472,261.262 207.100 C 262.408 205.510,262.076 205.758,259.600 208.344 M175.057 209.900 C 174.948 210.285,174.755 211.230,174.628 212.000 C 174.338 213.749,174.960 212.421,175.330 210.500 C 175.593 209.134,175.395 208.699,175.057 209.900 M174.054 216.076 C 174.025 217.548,174.135 218.836,174.300 218.939 C 174.465 219.041,174.548 218.197,174.484 217.062 C 174.294 213.653,174.112 213.237,174.054 216.076 M249.200 215.833 C 248.642 216.143,248.465 216.385,248.800 216.381 C 249.130 216.378,249.749 216.110,250.176 215.787 C 251.139 215.059,250.545 215.087,249.200 215.833 M239.905 218.683 C 240.402 218.779,241.122 218.775,241.505 218.675 C 241.887 218.575,241.480 218.496,240.600 218.501 C 239.720 218.505,239.407 218.587,239.905 218.683 M164.124 273.000 C 164.126 274.320,164.201 274.812,164.290 274.093 C 164.379 273.374,164.377 272.294,164.286 271.693 C 164.195 271.092,164.122 271.680,164.124 273.000 M163.402 276.900 C 163.258 277.615,163.055 278.560,162.951 279.000 C 162.804 279.620,162.845 279.665,163.130 279.200 C 163.549 278.516,164.132 275.600,163.850 275.600 C 163.747 275.600,163.546 276.185,163.402 276.900 M157.999 288.900 C 157.410 289.704,157.313 289.984,157.745 289.633 C 158.401 289.100,159.393 287.600,159.089 287.600 C 159.013 287.600,158.522 288.185,157.999 288.900 M155.381 292.024 C 154.512 292.918,152.810 294.393,151.600 295.303 C 148.719 297.470,148.306 297.880,149.936 296.957 C 151.232 296.223,157.622 290.456,157.181 290.419 C 157.061 290.408,156.251 291.131,155.381 292.024 M144.724 299.410 C 144.608 299.525,143.543 299.969,142.357 300.395 C 141.171 300.822,140.560 301.167,141.000 301.161 C 141.865 301.150,146.082 299.288,145.367 299.233 C 145.128 299.215,144.839 299.294,144.724 299.410 M134.600 302.400 C 133.493 302.682,133.477 302.709,134.400 302.747 C 134.950 302.769,135.670 302.613,136.000 302.400 C 136.681 301.960,136.329 301.960,134.600 302.400"/></g></svg>